<svg xmlns="http://www.w3.org/2000/svg" width="414.647216796875" height="460.8450012207031" viewBox="-228.91127014160156 -231.1100311279297 414.647216796875 460.8450012207031"><title>Neo4j Graph Visualization</title><desc>Created using Neo4j (http://www.neo4j.com/)</desc><g class="layer relationships"><g class="relationship" transform="translate(156.7359503279205 137.847191812061) rotate(513.829922726807)"><path class="outline" fill="#A5ABB6" stroke="none" data-darkreader-inline-fill="" data-darkreader-inline-stroke="" style="--darkreader-inline-fill:#b0a9a0; --darkreader-inline-stroke:none;" d="M 21.40063509461097,12.933012701892217 L 21.90063509461097,12.06698729810778 A 95.99112204501404 95.99112204501404 0 0 0 49.988042626537336,22.8402355787684 L 49.7806468479856,23.818492697852605 A 96.99112204501404 96.99112204501404 0 0 1 21.40063509461097,12.933012701892217 Z M 85.52396363456985,24.660061888314942 L 85.362837882151,23.673128004051435 A 95.99112204501404 95.99112204501404 0 0 0 113.9261485808728,14.233709467427616 L 112.55008530984111,11.56791692596503 L 120.37567505612412,11.467193925264098 L 115.76089960891505,17.788099522711065 L 114.38483633788336,15.122306981248478 A 96.99112204501404 96.99112204501404 0 0 1 85.52396363456985,24.660061888314942"/><text text-anchor="middle" pointer-events="none" font-size="8px" fill="#000000" data-darkreader-inline-fill="" style="--darkreader-inline-fill:#dedcd9;" x="67.62496154500371" y="28.400624938785185" transform="rotate(180 67.62496154500371 25.400624938785185)" font-family="sans-serif">WROTE</text></g><g class="relationship" transform="translate(156.7359503279205 137.847191812061) rotate(513.829922726807)"><path class="outline" fill="#A5ABB6" stroke="none" data-darkreader-inline-fill="" data-darkreader-inline-stroke="" style="--darkreader-inline-fill:#b0a9a0; --darkreader-inline-stroke:none;" d="M 25 0.5 L 44.349993950822835 0.5 L 44.349993950822835 -0.5 L 25 -0.5 Z M 91.24061895082284 0.5 L 110.59061290164567 0.5 L 110.59061290164567 3.5 L 117.59061290164567 0 L 110.59061290164567 -3.5 L 110.59061290164567 -0.5 L 91.24061895082284 -0.5 Z"/><text text-anchor="middle" pointer-events="none" font-size="8px" fill="#000000" data-darkreader-inline-fill="" style="--darkreader-inline-fill:#dedcd9;" x="67.79530645082284" y="3" transform="rotate(180 67.79530645082284 0)" font-family="sans-serif">DIRECTED</text></g><g class="relationship" transform="translate(156.7359503279205 137.847191812061) rotate(513.829922726807)"><path class="outline" fill="#A5ABB6" stroke="none" data-darkreader-inline-fill="" data-darkreader-inline-stroke="" style="--darkreader-inline-fill:#b0a9a0; --darkreader-inline-stroke:none;" d="M 21.40063509461097,-12.933012701892217 L 21.90063509461097,-12.06698729810778 A 95.99112204501404 95.99112204501404 0 0 1 42.276118136046385,-20.867879085474584 L 41.988382380982294,-21.82558892423458 A 96.99112204501404 96.99112204501404 0 0 0 21.40063509461097,-12.933012701892217 Z M 93.40138652776058,-23.036097745712524 L 93.15904279655048,-22.065907292274048 A 95.99112204501404 95.99112204501404 0 0 1 113.9261485808728,-14.233709467427616 L 112.55008530984111,-11.56791692596503 L 120.37567505612412,-11.467193925264098 L 115.76089960891505,-17.788099522711065 L 114.38483633788336,-15.122306981248478 A 96.99112204501404 96.99112204501404 0 0 0 93.40138652776058,-23.036097745712524"/><text text-anchor="middle" pointer-events="none" font-size="8px" fill="#000000" data-darkreader-inline-fill="" style="--darkreader-inline-fill:#dedcd9;" x="67.62496154500373" y="-22.400624938785185" transform="rotate(180 67.62496154500373 -25.400624938785185)" font-family="sans-serif">PRODUCED</text></g><g class="relationship" transform="translate(116.94076251720956 -202.1100283395582) rotate(438.5851543608691)"><path class="outline" fill="#A5ABB6" stroke="none" data-darkreader-inline-fill="" data-darkreader-inline-stroke="" style="--darkreader-inline-fill:#b0a9a0; --darkreader-inline-stroke:none;" d="M 24.018736134675446,-6.953439040707552 L 24.277555179777966,-5.987513214418485 A 176.57850561162365 176.57850561162365 0 0 1 50.04623909009899,-10.87558570254285 L 49.933353344301864,-11.869193677750303 A 177.57850561162365 177.57850561162365 0 0 0 24.018736134675446,-6.953439040707552 Z M 85.74419834880753,-12.303126993245854 L 85.65542204726866,-11.30707540407738 A 176.57850561162365 176.57850561162365 0 0 1 111.53498359115827,-7.0448438975510355 L 110.82897102083871,-4.129102782405391 L 118.45604828821803,-5.883438085996335 L 112.47633368491768,-10.93249871774523 L 111.77032111459812,-8.016757602599583 A 177.57850561162365 177.57850561162365 0 0 0 85.74419834880753,-12.303126993245854"/><text text-anchor="middle" pointer-events="none" font-size="8px" fill="#000000" data-darkreader-inline-fill="" style="--darkreader-inline-fill:#dedcd9;" x="67.83386684844655" y="-9.491281039765255" font-family="sans-serif">WROTE</text></g><g class="relationship" transform="translate(116.94076251720956 -202.1100283395582) rotate(438.5851543608691)"><path class="outline" fill="#A5ABB6" stroke="none" data-darkreader-inline-fill="" data-darkreader-inline-stroke="" style="--darkreader-inline-fill:#b0a9a0; --darkreader-inline-stroke:none;" d="M 24.018736134675446,6.953439040707552 L 24.277555179777966,5.987513214418485 A 176.57850561162365 176.57850561162365 0 0 0 44.549495354825076,10.163540068545416 L 44.40548043101031,11.153115584470612 A 177.57850561162365 177.57850561162365 0 0 1 24.018736134675446,6.953439040707552 Z M 91.28779959853665,11.721206066332343 L 91.16780554780772,10.728431455562287 A 176.57850561162365 176.57850561162365 0 0 0 111.53498359115827,7.0448438975510355 L 110.82897102083871,4.129102782405391 L 118.45604828821803,5.883438085996335 L 112.47633368491768,10.93249871774523 L 111.77032111459812,8.016757602599583 A 177.57850561162365 177.57850561162365 0 0 1 91.28779959853665,11.721206066332343"/><text text-anchor="middle" pointer-events="none" font-size="8px" fill="#000000" data-darkreader-inline-fill="" style="--darkreader-inline-fill:#dedcd9;" x="67.83386684844656" y="15.491281039765255" font-family="sans-serif">DIRECTED</text></g><g class="relationship" transform="translate(3.8960236798934966 -90.26125185004312) rotate(371.2404983277843)"><path class="outline" fill="#A5ABB6" stroke="none" data-darkreader-inline-fill="" data-darkreader-inline-stroke="" style="--darkreader-inline-fill:#b0a9a0; --darkreader-inline-stroke:none;" d="M 24.018736134675446,-6.953439040707552 L 24.277555179777966,-5.987513214418485 A 179.15220416007287 179.15220416007287 0 0 1 50.69812826741191,-10.978005124395196 L 50.5867847904248,-11.971787107594935 A 180.15220416007287 180.15220416007287 0 0 0 24.018736134675446,-6.953439040707552 Z M 86.39796409413054,-12.401964367247217 L 86.31052466157365,-11.405794529501605 A 179.15220416007287 179.15220416007287 0 0 1 112.8433520313297,-7.051398641519681 L 112.13672727099251,-4.135805829057965 L 119.76417272046324,-5.888539669476541 L 113.78551837844594,-10.938855724801968 L 113.07889361810875,-8.023262912340252 A 180.15220416007287 180.15220416007287 0 0 0 86.39796409413054,-12.401964367247217"/><text text-anchor="middle" pointer-events="none" font-size="8px" fill="#000000" data-darkreader-inline-fill="" style="--darkreader-inline-fill:#dedcd9;" x="68.48766390345604" y="-9.579016294769502" font-family="sans-serif">WROTE</text></g><g class="relationship" transform="translate(3.8960236798934966 -90.26125185004312) rotate(371.2404983277843)"><path class="outline" fill="#A5ABB6" stroke="none" data-darkreader-inline-fill="" data-darkreader-inline-stroke="" style="--darkreader-inline-fill:#b0a9a0; --darkreader-inline-stroke:none;" d="M 24.018736134675446,6.953439040707552 L 24.277555179777966,5.987513214418485 A 179.15220416007287 179.15220416007287 0 0 0 45.19989852203214,10.27569849183132 L 45.05786477376895,11.265560307618898 A 180.15220416007287 180.15220416007287 0 0 1 24.018736134675446,6.953439040707552 Z M 91.9422531987754,11.828753090579141 L 91.82403818325801,10.835765069449877 A 179.15220416007287 179.15220416007287 0 0 0 112.8433520313297,7.051398641519681 L 112.13672727099251,4.135805829057965 L 119.76417272046324,5.888539669476541 L 113.78551837844594,10.938855724801968 L 113.07889361810875,8.023262912340252 A 180.15220416007287 180.15220416007287 0 0 1 91.9422531987754,11.828753090579141"/><text text-anchor="middle" pointer-events="none" font-size="8px" fill="#000000" data-darkreader-inline-fill="" style="--darkreader-inline-fill:#dedcd9;" x="68.48766390345608" y="15.579016294769502" font-family="sans-serif">DIRECTED</text></g><g class="relationship" transform="translate(-172.01210823384778 100.40235757633862) rotate(258.8372341978558)"><path class="outline" fill="#A5ABB6" stroke="none" data-darkreader-inline-fill="" data-darkreader-inline-stroke="" style="--darkreader-inline-fill:#b0a9a0; --darkreader-inline-stroke:none;" d="M 21.40063509461097,12.933012701892217 L 21.90063509461097,12.06698729810778 A 96.26845906534821 96.26845906534821 0 0 0 50.12327634965581,22.88281140666507 L 49.916442372349564,23.861187462091436 A 97.26845906534821 97.26845906534821 0 0 1 21.40063509461097,12.933012701892217 Z M 85.66044158270411,24.701235575434396 L 85.49979776141234,23.71422313241213 A 96.26845906534821 96.26845906534821 0 0 0 114.19938146205298,14.23617344019533 L 112.8230890419742,11.570499196324995 L 120.6486701010969,11.469103500656548 L 116.03443802215803,17.790405765355775 L 114.65814560207924,15.12473152148544 A 97.26845906534821 97.26845906534821 0 0 1 85.66044158270411,24.701235575434396"/><text text-anchor="middle" pointer-events="none" font-size="8px" fill="#000000" data-darkreader-inline-fill="" style="--darkreader-inline-fill:#dedcd9;" x="67.76126002549607" y="28.437802024105792" transform="rotate(180 67.76126002549607 25.437802024105792)" font-family="sans-serif">WROTE</text></g><g class="relationship" transform="translate(-172.01210823384778 100.40235757633862) rotate(258.8372341978558)"><path class="outline" fill="#A5ABB6" stroke="none" data-darkreader-inline-fill="" data-darkreader-inline-stroke="" style="--darkreader-inline-fill:#b0a9a0; --darkreader-inline-stroke:none;" d="M 25 0.5 L 44.48599856667482 0.5 L 44.48599856667482 -0.5 L 25 -0.5 Z M 91.37662356667482 0.5 L 110.86262213334965 0.5 L 110.86262213334965 3.5 L 117.86262213334965 0 L 110.86262213334965 -3.5 L 110.86262213334965 -0.5 L 91.37662356667482 -0.5 Z"/><text text-anchor="middle" pointer-events="none" font-size="8px" fill="#000000" data-darkreader-inline-fill="" style="--darkreader-inline-fill:#dedcd9;" x="67.93131106667482" y="3" transform="rotate(180 67.93131106667482 0)" font-family="sans-serif">DIRECTED</text></g><g class="relationship" transform="translate(-172.01210823384778 100.40235757633862) rotate(258.8372341978558)"><path class="outline" fill="#A5ABB6" stroke="none" data-darkreader-inline-fill="" data-darkreader-inline-stroke="" style="--darkreader-inline-fill:#b0a9a0; --darkreader-inline-stroke:none;" d="M 21.40063509461097,-12.933012701892217 L 21.90063509461097,-12.06698729810778 A 96.26845906534821 96.26845906534821 0 0 1 42.409858827560925,-20.915768077686934 L 42.122900813815505,-21.873711237977403 A 97.26845906534821 97.26845906534821 0 0 0 21.40063509461097,-12.933012701892217 Z M 93.53874555732057,-23.082075839781766 L 93.29710627202824,-22.111709694554392 A 96.26845906534821 96.26845906534821 0 0 1 114.19938146205298,-14.23617344019533 L 112.8230890419742,-11.570499196324995 L 120.6486701010969,-11.469103500656548 L 116.03443802215803,-17.790405765355775 L 114.65814560207924,-15.12473152148544 A 97.26845906534821 97.26845906534821 0 0 0 93.53874555732057,-23.082075839781766"/><text text-anchor="middle" pointer-events="none" font-size="8px" fill="#000000" data-darkreader-inline-fill="" style="--darkreader-inline-fill:#dedcd9;" x="67.76126002549607" y="-22.437802024105792" transform="rotate(180 67.76126002549607 -25.437802024105792)" font-family="sans-serif">PRODUCED</text></g></g><g class="layer nodes"><g class="node" aria-label="graph-node379" transform="translate(28.762468872764117,200.7349563765111)"><circle class="outline" cx="0" cy="0" r="25" fill="#F79767" stroke="#f36924" stroke-width="2px" data-darkreader-inline-fill="" data-darkreader-inline-stroke="" style="--darkreader-inline-fill:#8b3b13; --darkreader-inline-stroke:#e8763c;"/><text class="caption" text-anchor="middle" pointer-events="none" x="0" y="0" font-size="10px" fill="#FFFFFF" data-darkreader-inline-fill="" style="--darkreader-inline-fill:#dedcd9;" font-family="sans-serif"> Jerry</text><text class="caption" text-anchor="middle" pointer-events="none" x="0" y="10" font-size="10px" fill="#FFFFFF" data-darkreader-inline-fill="" style="--darkreader-inline-fill:#dedcd9;" font-family="sans-serif"> Maguire</text></g><g class="node" aria-label="graph-node387" transform="translate(156.7359503279205,137.847191812061)"><circle class="outline" cx="0" cy="0" r="25" fill="#C990C0" stroke="#b261a5" stroke-width="2px" data-darkreader-inline-fill="" data-darkreader-inline-stroke="" style="--darkreader-inline-fill:#683960; --darkreader-inline-stroke:#b270a8;"/><text class="caption" text-anchor="middle" pointer-events="none" x="0" y="0" font-size="10px" fill="#FFFFFF" data-darkreader-inline-fill="" style="--darkreader-inline-fill:#dedcd9;" font-family="sans-serif"> Cameron</text><text class="caption" text-anchor="middle" pointer-events="none" x="0" y="10" font-size="10px" fill="#FFFFFF" data-darkreader-inline-fill="" style="--darkreader-inline-fill:#dedcd9;" font-family="sans-serif"> Crowe</text></g><g class="node" aria-label="graph-node463" transform="translate(145.1933745283212,-62.17981971483316)"><circle class="outline" cx="0" cy="0" r="25" fill="#F79767" stroke="#f36924" stroke-width="2px" data-darkreader-inline-fill="" data-darkreader-inline-stroke="" style="--darkreader-inline-fill:#8b3b13; --darkreader-inline-stroke:#e8763c;"/><text class="caption" text-anchor="middle" pointer-events="none" x="0" y="0" font-size="10px" fill="#FFFFFF" data-darkreader-inline-fill="" style="--darkreader-inline-fill:#dedcd9;" font-family="sans-serif"> Speed</text><text class="caption" text-anchor="middle" pointer-events="none" x="0" y="10" font-size="10px" fill="#FFFFFF" data-darkreader-inline-fill="" style="--darkreader-inline-fill:#dedcd9;" font-family="sans-serif"> Racer</text></g><g class="node" aria-label="graph-node347" transform="translate(116.94076251720956,-202.1100283395582)"><circle class="outline" cx="0" cy="0" r="25" fill="#C990C0" stroke="#b261a5" stroke-width="2px" data-darkreader-inline-fill="" data-darkreader-inline-stroke="" style="--darkreader-inline-fill:#683960; --darkreader-inline-stroke:#b270a8;"/><text class="caption" text-anchor="middle" pointer-events="none" x="0" y="0" font-size="10px" fill="#FFFFFF" data-darkreader-inline-fill="" style="--darkreader-inline-fill:#dedcd9;" font-family="sans-serif"> Lilly</text><text class="caption" text-anchor="middle" pointer-events="none" x="0" y="10" font-size="10px" fill="#FFFFFF" data-darkreader-inline-fill="" style="--darkreader-inline-fill:#dedcd9;" font-family="sans-serif"> Wach…</text></g><g class="node" aria-label="graph-node348" transform="translate(3.8960236798934966,-90.26125185004312)"><circle class="outline" cx="0" cy="0" r="25" fill="#C990C0" stroke="#b261a5" stroke-width="2px" data-darkreader-inline-fill="" data-darkreader-inline-stroke="" style="--darkreader-inline-fill:#683960; --darkreader-inline-stroke:#b270a8;"/><text class="caption" text-anchor="middle" pointer-events="none" x="0" y="0" font-size="10px" fill="#FFFFFF" data-darkreader-inline-fill="" style="--darkreader-inline-fill:#dedcd9;" font-family="sans-serif"> Lana</text><text class="caption" text-anchor="middle" pointer-events="none" x="0" y="10" font-size="10px" fill="#FFFFFF" data-darkreader-inline-fill="" style="--darkreader-inline-fill:#dedcd9;" font-family="sans-serif"> Wach…</text></g><g class="node" aria-label="graph-node496" transform="translate(-199.66985862919148,-39.7574713543686)"><circle class="outline" cx="0" cy="0" r="25" fill="#F79767" stroke="#f36924" stroke-width="2px" data-darkreader-inline-fill="" data-darkreader-inline-stroke="" style="--darkreader-inline-fill:#8b3b13; --darkreader-inline-stroke:#e8763c;"/><text class="caption" text-anchor="middle" pointer-events="none" x="0" y="5" font-size="10px" fill="#FFFFFF" data-darkreader-inline-fill="" style="--darkreader-inline-fill:#dedcd9;" font-family="sans-serif"> Somethi…</text></g><g class="node" aria-label="graph-node498" transform="translate(-172.01210823384778,100.40235757633862)"><circle class="outline" cx="0" cy="0" r="25" fill="#C990C0" stroke="#b261a5" stroke-width="2px" data-darkreader-inline-fill="" data-darkreader-inline-stroke="" style="--darkreader-inline-fill:#683960; --darkreader-inline-stroke:#b270a8;"/><text class="caption" text-anchor="middle" pointer-events="none" x="0" y="0" font-size="10px" fill="#FFFFFF" data-darkreader-inline-fill="" style="--darkreader-inline-fill:#dedcd9;" font-family="sans-serif"> Nancy</text><text class="caption" text-anchor="middle" pointer-events="none" x="0" y="10" font-size="10px" fill="#FFFFFF" data-darkreader-inline-fill="" style="--darkreader-inline-fill:#dedcd9;" font-family="sans-serif"> Meyers</text></g></g></svg>