<svg xmlns="http://www.w3.org/2000/svg" width="579.87109375" height="600.5702514648438" viewBox="-354.7731018066406 -264.0024719238281 579.87109375 600.5702514648438"><title>Neo4j Graph Visualization</title><desc>Created using Neo4j (http://www.neo4j.com/)</desc><g class="layer relationships"><g class="relationship" transform="translate(-184.79959785762188 -51.67748232875442) rotate(499.95536576253926)"><path class="outline" fill="#A5ABB6" stroke="none" data-darkreader-inline-fill="" data-darkreader-inline-stroke="" style="--darkreader-inline-fill:#b0a9a0; --darkreader-inline-stroke:none;" d="M 25 0.5 L 47.66832454440673 0.5 L 47.66832454440673 -0.5 L 25 -0.5 Z M 93.23082454440673 0.5 L 115.89914908881346 0.5 L 115.89914908881346 3.5 L 122.89914908881346 0 L 115.89914908881346 -3.5 L 115.89914908881346 -0.5 L 93.23082454440673 -0.5 Z"/><text text-anchor="middle" pointer-events="none" font-size="8px" fill="#000000" data-darkreader-inline-fill="" style="--darkreader-inline-fill:#dedcd9;" x="70.44957454440673" y="3" transform="rotate(180 70.44957454440673 0)" font-family="sans-serif">ACTED_IN</text></g><g class="relationship" transform="translate(-184.79959785762188 -51.67748232875442) rotate(319.23557142738974)"><path class="outline" fill="#A5ABB6" stroke="none" data-darkreader-inline-fill="" data-darkreader-inline-stroke="" style="--darkreader-inline-fill:#b0a9a0; --darkreader-inline-stroke:none;" d="M 25 0.5 L 49.70739938049674 0.5 L 49.70739938049674 -0.5 L 25 -0.5 Z M 95.26989938049674 0.5 L 119.97729876099348 0.5 L 119.97729876099348 3.5 L 126.97729876099348 0 L 119.97729876099348 -3.5 L 119.97729876099348 -0.5 L 95.26989938049674 -0.5 Z"/><text text-anchor="middle" pointer-events="none" font-size="8px" fill="#000000" data-darkreader-inline-fill="" style="--darkreader-inline-fill:#dedcd9;" x="72.48864938049674" y="3" font-family="sans-serif">ACTED_IN</text></g><g class="relationship" transform="translate(-184.79959785762188 -51.67748232875442) rotate(391.3499871178399)"><path class="outline" fill="#A5ABB6" stroke="none" data-darkreader-inline-fill="" data-darkreader-inline-stroke="" style="--darkreader-inline-fill:#b0a9a0; --darkreader-inline-stroke:none;" d="M 25 0.5 L 185.68953298916102 0.5 L 185.68953298916102 -0.5 L 25 -0.5 Z M 231.25203298916102 0.5 L 391.94156597832205 0.5 L 391.94156597832205 3.5 L 398.94156597832205 0 L 391.94156597832205 -3.5 L 391.94156597832205 -0.5 L 231.25203298916102 -0.5 Z"/><text text-anchor="middle" pointer-events="none" font-size="8px" fill="#000000" data-darkreader-inline-fill="" style="--darkreader-inline-fill:#dedcd9;" x="208.47078298916102" y="3" font-family="sans-serif">ACTED_IN</text></g><g class="relationship" transform="translate(-184.79959785762188 -51.67748232875442) rotate(419.17069338875297)"><path class="outline" fill="#A5ABB6" stroke="none" data-darkreader-inline-fill="" data-darkreader-inline-stroke="" style="--darkreader-inline-fill:#b0a9a0; --darkreader-inline-stroke:none;" d="M 25 0.5 L 68.88311670995077 0.5 L 68.88311670995077 -0.5 L 25 -0.5 Z M 114.44561670995077 0.5 L 158.32873341990154 0.5 L 158.32873341990154 3.5 L 165.32873341990154 0 L 158.32873341990154 -3.5 L 158.32873341990154 -0.5 L 114.44561670995077 -0.5 Z"/><text text-anchor="middle" pointer-events="none" font-size="8px" fill="#000000" data-darkreader-inline-fill="" style="--darkreader-inline-fill:#dedcd9;" x="91.66436670995077" y="3" font-family="sans-serif">ACTED_IN</text></g><g class="relationship" transform="translate(-184.79959785762188 -51.67748232875442) rotate(457.1733218155422)"><path class="outline" fill="#A5ABB6" stroke="none" data-darkreader-inline-fill="" data-darkreader-inline-stroke="" style="--darkreader-inline-fill:#b0a9a0; --darkreader-inline-stroke:none;" d="M 25 0.5 L 49.154164413447916 0.5 L 49.154164413447916 -0.5 L 25 -0.5 Z M 94.71666441344792 0.5 L 118.87082882689583 0.5 L 118.87082882689583 3.5 L 125.87082882689583 0 L 118.87082882689583 -3.5 L 118.87082882689583 -0.5 L 94.71666441344792 -0.5 Z"/><text text-anchor="middle" pointer-events="none" font-size="8px" fill="#000000" data-darkreader-inline-fill="" style="--darkreader-inline-fill:#dedcd9;" x="71.93541441344792" y="3" transform="rotate(180 71.93541441344792 0)" font-family="sans-serif">ACTED_IN</text></g><g class="relationship" transform="translate(-184.79959785762188 -51.67748232875442) rotate(192.9332213968014)"><path class="outline" fill="#A5ABB6" stroke="none" data-darkreader-inline-fill="" data-darkreader-inline-stroke="" style="--darkreader-inline-fill:#b0a9a0; --darkreader-inline-stroke:none;" d="M 25 0.5 L 46.04018063215173 0.5 L 46.04018063215173 -0.5 L 25 -0.5 Z M 91.60268063215173 0.5 L 112.64286126430346 0.5 L 112.64286126430346 3.5 L 119.64286126430346 0 L 112.64286126430346 -3.5 L 112.64286126430346 -0.5 L 91.60268063215173 -0.5 Z"/><text text-anchor="middle" pointer-events="none" font-size="8px" fill="#000000" data-darkreader-inline-fill="" style="--darkreader-inline-fill:#dedcd9;" x="68.82143063215173" y="3" transform="rotate(180 68.82143063215173 0)" font-family="sans-serif">ACTED_IN</text></g><g class="relationship" transform="translate(-184.79959785762188 -51.67748232875442) rotate(253.73412997236642)"><path class="outline" fill="#A5ABB6" stroke="none" data-darkreader-inline-fill="" data-darkreader-inline-stroke="" style="--darkreader-inline-fill:#b0a9a0; --darkreader-inline-stroke:none;" d="M 25 0.5 L 46.75199600884784 0.5 L 46.75199600884784 -0.5 L 25 -0.5 Z M 92.31449600884784 0.5 L 114.06649201769568 0.5 L 114.06649201769568 3.5 L 121.06649201769568 0 L 114.06649201769568 -3.5 L 114.06649201769568 -0.5 L 92.31449600884784 -0.5 Z"/><text text-anchor="middle" pointer-events="none" font-size="8px" fill="#000000" data-darkreader-inline-fill="" style="--darkreader-inline-fill:#dedcd9;" x="69.53324600884784" y="3" transform="rotate(180 69.53324600884784 0)" font-family="sans-serif">ACTED_IN</text></g><g class="relationship" transform="translate(196.09799980196115 307.56777991783514) rotate(262.26003262586084)"><path class="outline" fill="#A5ABB6" stroke="none" data-darkreader-inline-fill="" data-darkreader-inline-stroke="" style="--darkreader-inline-fill:#b0a9a0; --darkreader-inline-stroke:none;" d="M 25 0.5 L 43.69808061532355 0.5 L 43.69808061532355 -0.5 L 25 -0.5 Z M 89.26058061532355 0.5 L 107.9586612306471 0.5 L 107.9586612306471 3.5 L 114.9586612306471 0 L 107.9586612306471 -3.5 L 107.9586612306471 -0.5 L 89.26058061532355 -0.5 Z"/><text text-anchor="middle" pointer-events="none" font-size="8px" fill="#000000" data-darkreader-inline-fill="" style="--darkreader-inline-fill:#dedcd9;" x="66.47933061532355" y="3" transform="rotate(180 66.47933061532355 0)" font-family="sans-serif">ACTED_IN</text></g><g class="relationship" transform="translate(-80.69290396287789 -30.65062141499476) rotate(397.7243115247173)"><path class="outline" fill="#A5ABB6" stroke="none" data-darkreader-inline-fill="" data-darkreader-inline-stroke="" style="--darkreader-inline-fill:#b0a9a0; --darkreader-inline-stroke:none;" d="M 25 0.5 L 136.77398250199633 0.5 L 136.77398250199633 -0.5 L 25 -0.5 Z M 182.33648250199633 0.5 L 294.11046500399266 0.5 L 294.11046500399266 3.5 L 301.11046500399266 0 L 294.11046500399266 -3.5 L 294.11046500399266 -0.5 L 182.33648250199633 -0.5 Z"/><text text-anchor="middle" pointer-events="none" font-size="8px" fill="#000000" data-darkreader-inline-fill="" style="--darkreader-inline-fill:#dedcd9;" x="159.55523250199633" y="3" font-family="sans-serif">ACTED_IN</text></g><g class="relationship" transform="translate(-80.69290396287789 -30.65062141499476) rotate(275.2266657670306)"><path class="outline" fill="#A5ABB6" stroke="none" data-darkreader-inline-fill="" data-darkreader-inline-stroke="" style="--darkreader-inline-fill:#b0a9a0; --darkreader-inline-stroke:none;" d="M 25 0.5 L 34.100066430118865 0.5 L 34.100066430118865 -0.5 L 25 -0.5 Z M 79.66256643011886 0.5 L 88.76263286023773 0.5 L 88.76263286023773 3.5 L 95.76263286023773 0 L 88.76263286023773 -3.5 L 88.76263286023773 -0.5 L 79.66256643011886 -0.5 Z"/><text text-anchor="middle" pointer-events="none" font-size="8px" fill="#000000" data-darkreader-inline-fill="" style="--darkreader-inline-fill:#dedcd9;" x="56.881316430118865" y="3" font-family="sans-serif">ACTED_IN</text></g><g class="relationship" transform="translate(-80.69290396287789 -30.65062141499476) rotate(452.64011112244975)"><path class="outline" fill="#A5ABB6" stroke="none" data-darkreader-inline-fill="" data-darkreader-inline-stroke="" style="--darkreader-inline-fill:#b0a9a0; --darkreader-inline-stroke:none;" d="M 25 0.5 L 44.998417675937645 0.5 L 44.998417675937645 -0.5 L 25 -0.5 Z M 90.56091767593765 0.5 L 110.55933535187529 0.5 L 110.55933535187529 3.5 L 117.55933535187529 0 L 110.55933535187529 -3.5 L 110.55933535187529 -0.5 L 90.56091767593765 -0.5 Z"/><text text-anchor="middle" pointer-events="none" font-size="8px" fill="#000000" data-darkreader-inline-fill="" style="--darkreader-inline-fill:#dedcd9;" x="67.77966767593765" y="3" transform="rotate(180 67.77966767593765 0)" font-family="sans-serif">ACTED_IN</text></g><g class="relationship" transform="translate(-14.611630751923599 -49.892535971411434) rotate(241.398625359734)"><path class="outline" fill="#A5ABB6" stroke="none" data-darkreader-inline-fill="" data-darkreader-inline-stroke="" style="--darkreader-inline-fill:#b0a9a0; --darkreader-inline-stroke:none;" d="M 25 0.5 L 31.24829489335766 0.5 L 31.24829489335766 -0.5 L 25 -0.5 Z M 76.81079489335767 0.5 L 83.05908978671532 0.5 L 83.05908978671532 3.5 L 90.05908978671532 0 L 83.05908978671532 -3.5 L 83.05908978671532 -0.5 L 76.81079489335767 -0.5 Z"/><text text-anchor="middle" pointer-events="none" font-size="8px" fill="#000000" data-darkreader-inline-fill="" style="--darkreader-inline-fill:#dedcd9;" x="54.02954489335766" y="3" transform="rotate(180 54.02954489335766 0)" font-family="sans-serif">ACTED_IN</text></g><g class="relationship" transform="translate(-14.611630751923599 -49.892535971411434) rotate(474.1998607097539)"><path class="outline" fill="#A5ABB6" stroke="none" data-darkreader-inline-fill="" data-darkreader-inline-stroke="" style="--darkreader-inline-fill:#b0a9a0; --darkreader-inline-stroke:none;" d="M 25 0.5 L 62.330849077065935 0.5 L 62.330849077065935 -0.5 L 25 -0.5 Z M 107.89334907706593 0.5 L 145.22419815413187 0.5 L 145.22419815413187 3.5 L 152.22419815413187 0 L 145.22419815413187 -3.5 L 145.22419815413187 -0.5 L 107.89334907706593 -0.5 Z"/><text text-anchor="middle" pointer-events="none" font-size="8px" fill="#000000" data-darkreader-inline-fill="" style="--darkreader-inline-fill:#dedcd9;" x="85.11209907706593" y="3" transform="rotate(180 85.11209907706593 0)" font-family="sans-serif">ACTED_IN</text></g><g class="relationship" transform="translate(-14.611630751923599 -49.892535971411434) rotate(408.7502517967142)"><path class="outline" fill="#A5ABB6" stroke="none" data-darkreader-inline-fill="" data-darkreader-inline-stroke="" style="--darkreader-inline-fill:#b0a9a0; --darkreader-inline-stroke:none;" d="M 25 0.5 L 119.2124465363404 0.5 L 119.2124465363404 -0.5 L 25 -0.5 Z M 164.7749465363404 0.5 L 258.9873930726808 0.5 L 258.9873930726808 3.5 L 265.9873930726808 0 L 258.9873930726808 -3.5 L 258.9873930726808 -0.5 L 164.7749465363404 -0.5 Z"/><text text-anchor="middle" pointer-events="none" font-size="8px" fill="#000000" data-darkreader-inline-fill="" style="--darkreader-inline-fill:#dedcd9;" x="141.9936965363404" y="3" font-family="sans-serif">ACTED_IN</text></g><g class="relationship" transform="translate(98.8640462793038 -56.01895675420112) rotate(497.96772465392513)"><path class="outline" fill="#A5ABB6" stroke="none" data-darkreader-inline-fill="" data-darkreader-inline-stroke="" style="--darkreader-inline-fill:#b0a9a0; --darkreader-inline-stroke:none;" d="M 25 0.5 L 99.00929861285064 0.5 L 99.00929861285064 -0.5 L 25 -0.5 Z M 144.57179861285064 0.5 L 218.58109722570128 0.5 L 218.58109722570128 3.5 L 225.58109722570128 0 L 218.58109722570128 -3.5 L 218.58109722570128 -0.5 L 144.57179861285064 -0.5 Z"/><text text-anchor="middle" pointer-events="none" font-size="8px" fill="#000000" data-darkreader-inline-fill="" style="--darkreader-inline-fill:#dedcd9;" x="121.79054861285064" y="3" transform="rotate(180 121.79054861285064 0)" font-family="sans-serif">ACTED_IN</text></g><g class="relationship" transform="translate(98.8640462793038 -56.01895675420112) rotate(209.3782669438982)"><path class="outline" fill="#A5ABB6" stroke="none" data-darkreader-inline-fill="" data-darkreader-inline-stroke="" style="--darkreader-inline-fill:#b0a9a0; --darkreader-inline-stroke:none;" d="M 25 0.5 L 70.434356432242 0.5 L 70.434356432242 -0.5 L 25 -0.5 Z M 115.996856432242 0.5 L 161.431212864484 0.5 L 161.431212864484 3.5 L 168.431212864484 0 L 161.431212864484 -3.5 L 161.431212864484 -0.5 L 115.996856432242 -0.5 Z"/><text text-anchor="middle" pointer-events="none" font-size="8px" fill="#000000" data-darkreader-inline-fill="" style="--darkreader-inline-fill:#dedcd9;" x="93.215606432242" y="3" transform="rotate(180 93.215606432242 0)" font-family="sans-serif">ACTED_IN</text></g><g class="relationship" transform="translate(98.8640462793038 -56.01895675420112) rotate(262.65630230263605)"><path class="outline" fill="#A5ABB6" stroke="none" data-darkreader-inline-fill="" data-darkreader-inline-stroke="" style="--darkreader-inline-fill:#b0a9a0; --darkreader-inline-stroke:none;" d="M 25 0.5 L 44.61606422822136 0.5 L 44.61606422822136 -0.5 L 25 -0.5 Z M 90.17856422822136 0.5 L 109.79462845644272 0.5 L 109.79462845644272 3.5 L 116.79462845644272 0 L 109.79462845644272 -3.5 L 109.79462845644272 -0.5 L 90.17856422822136 -0.5 Z"/><text text-anchor="middle" pointer-events="none" font-size="8px" fill="#000000" data-darkreader-inline-fill="" style="--darkreader-inline-fill:#dedcd9;" x="67.39731422822136" y="3" transform="rotate(180 67.39731422822136 0)" font-family="sans-serif">ACTED_IN</text></g><g class="relationship" transform="translate(98.8640462793038 -56.01895675420112) rotate(430.78520771161885)"><path class="outline" fill="#A5ABB6" stroke="none" data-darkreader-inline-fill="" data-darkreader-inline-stroke="" style="--darkreader-inline-fill:#b0a9a0; --darkreader-inline-stroke:none;" d="M 25 0.5 L 92.80442708125089 0.5 L 92.80442708125089 -0.5 L 25 -0.5 Z M 138.36692708125088 0.5 L 206.17135416250179 0.5 L 206.17135416250179 3.5 L 213.17135416250179 0 L 206.17135416250179 -3.5 L 206.17135416250179 -0.5 L 138.36692708125088 -0.5 Z"/><text text-anchor="middle" pointer-events="none" font-size="8px" fill="#000000" data-darkreader-inline-fill="" style="--darkreader-inline-fill:#dedcd9;" x="115.58567708125089" y="3" font-family="sans-serif">ACTED_IN</text></g><g class="relationship" transform="translate(98.8640462793038 -56.01895675420112) rotate(292.3727210087888)"><path class="outline" fill="#A5ABB6" stroke="none" data-darkreader-inline-fill="" data-darkreader-inline-stroke="" style="--darkreader-inline-fill:#b0a9a0; --darkreader-inline-stroke:none;" d="M 25 0.5 L 70.49511830234634 0.5 L 70.49511830234634 -0.5 L 25 -0.5 Z M 116.05761830234634 0.5 L 161.55273660469268 0.5 L 161.55273660469268 3.5 L 168.55273660469268 0 L 161.55273660469268 -3.5 L 161.55273660469268 -0.5 L 116.05761830234634 -0.5 Z"/><text text-anchor="middle" pointer-events="none" font-size="8px" fill="#000000" data-darkreader-inline-fill="" style="--darkreader-inline-fill:#dedcd9;" x="93.27636830234634" y="3" font-family="sans-serif">ACTED_IN</text></g></g><g class="layer nodes"><g class="node" aria-label="graph-node342" transform="translate(177.24872766510381,168.88421278248296)"><circle class="outline" cx="0" cy="0" r="25" fill="#F79767" stroke="#f36924" stroke-width="2px" data-darkreader-inline-fill="" data-darkreader-inline-stroke="" style="--darkreader-inline-fill:#8b3b13; --darkreader-inline-stroke:#e8763c;"/><text class="caption" text-anchor="middle" pointer-events="none" x="0" y="0" font-size="10px" fill="#FFFFFF" data-darkreader-inline-fill="" style="--darkreader-inline-fill:#dedcd9;" font-family="sans-serif"> The</text><text class="caption" text-anchor="middle" pointer-events="none" x="0" y="10" font-size="10px" fill="#FFFFFF" data-darkreader-inline-fill="" style="--darkreader-inline-fill:#dedcd9;" font-family="sans-serif"> Matrix</text></g><g class="node" aria-label="graph-node343" transform="translate(-184.79959785762188,-51.67748232875442)"><circle class="outline" cx="0" cy="0" r="25" fill="#C990C0" stroke="#b261a5" stroke-width="2px" data-darkreader-inline-fill="" data-darkreader-inline-stroke="" style="--darkreader-inline-fill:#683960; --darkreader-inline-stroke:#b270a8;"/><text class="caption" text-anchor="middle" pointer-events="none" x="0" y="0" font-size="10px" fill="#FFFFFF" data-darkreader-inline-fill="" style="--darkreader-inline-fill:#dedcd9;" font-family="sans-serif"> Keanu</text><text class="caption" text-anchor="middle" pointer-events="none" x="0" y="10" font-size="10px" fill="#FFFFFF" data-darkreader-inline-fill="" style="--darkreader-inline-fill:#dedcd9;" font-family="sans-serif"> Reeves</text></g><g class="node" aria-label="graph-node350" transform="translate(196.09799980196115,307.56777991783514)"><circle class="outline" cx="0" cy="0" r="25" fill="#C990C0" stroke="#b261a5" stroke-width="2px" data-darkreader-inline-fill="" data-darkreader-inline-stroke="" style="--darkreader-inline-fill:#683960; --darkreader-inline-stroke:#b270a8;"/><text class="caption" text-anchor="middle" pointer-events="none" x="0" y="0" font-size="10px" fill="#FFFFFF" data-darkreader-inline-fill="" style="--darkreader-inline-fill:#dedcd9;" font-family="sans-serif"> Emil</text><text class="caption" text-anchor="middle" pointer-events="none" x="0" y="10" font-size="10px" fill="#FFFFFF" data-darkreader-inline-fill="" style="--darkreader-inline-fill:#dedcd9;" font-family="sans-serif"> Eifrem</text></g><g class="node" aria-label="graph-node345" transform="translate(-80.69290396287789,-30.65062141499476)"><circle class="outline" cx="0" cy="0" r="25" fill="#C990C0" stroke="#b261a5" stroke-width="2px" data-darkreader-inline-fill="" data-darkreader-inline-stroke="" style="--darkreader-inline-fill:#683960; --darkreader-inline-stroke:#b270a8;"/><text class="caption" text-anchor="middle" pointer-events="none" x="0" y="0" font-size="10px" fill="#FFFFFF" data-darkreader-inline-fill="" style="--darkreader-inline-fill:#dedcd9;" font-family="sans-serif"> Laurence</text><text class="caption" text-anchor="middle" pointer-events="none" x="0" y="10" font-size="10px" fill="#FFFFFF" data-darkreader-inline-fill="" style="--darkreader-inline-fill:#dedcd9;" font-family="sans-serif"> Fishb…</text></g><g class="node" aria-label="graph-node344" transform="translate(-14.611630751923599,-49.892535971411434)"><circle class="outline" cx="0" cy="0" r="25" fill="#C990C0" stroke="#b261a5" stroke-width="2px" data-darkreader-inline-fill="" data-darkreader-inline-stroke="" style="--darkreader-inline-fill:#683960; --darkreader-inline-stroke:#b270a8;"/><text class="caption" text-anchor="middle" pointer-events="none" x="0" y="5" font-size="10px" fill="#FFFFFF" data-darkreader-inline-fill="" style="--darkreader-inline-fill:#dedcd9;" font-family="sans-serif"> Carrie-A…</text></g><g class="node" aria-label="graph-node346" transform="translate(98.8640462793038,-56.01895675420112)"><circle class="outline" cx="0" cy="0" r="25" fill="#C990C0" stroke="#b261a5" stroke-width="2px" data-darkreader-inline-fill="" data-darkreader-inline-stroke="" style="--darkreader-inline-fill:#683960; --darkreader-inline-stroke:#b270a8;"/><text class="caption" text-anchor="middle" pointer-events="none" x="0" y="0" font-size="10px" fill="#FFFFFF" data-darkreader-inline-fill="" style="--darkreader-inline-fill:#dedcd9;" font-family="sans-serif"> Hugo</text><text class="caption" text-anchor="middle" pointer-events="none" x="0" y="10" font-size="10px" fill="#FFFFFF" data-darkreader-inline-fill="" style="--darkreader-inline-fill:#dedcd9;" font-family="sans-serif"> Weavi…</text></g><g class="node" aria-label="graph-node351" transform="translate(-69.6919038688639,-150.9111365156215)"><circle class="outline" cx="0" cy="0" r="25" fill="#F79767" stroke="#f36924" stroke-width="2px" data-darkreader-inline-fill="" data-darkreader-inline-stroke="" style="--darkreader-inline-fill:#8b3b13; --darkreader-inline-stroke:#e8763c;"/><text class="caption" text-anchor="middle" pointer-events="none" x="0" y="-5" font-size="10px" fill="#FFFFFF" data-darkreader-inline-fill="" style="--darkreader-inline-fill:#dedcd9;" font-family="sans-serif"> The</text><text class="caption" text-anchor="middle" pointer-events="none" x="0" y="5" font-size="10px" fill="#FFFFFF" data-darkreader-inline-fill="" style="--darkreader-inline-fill:#dedcd9;" font-family="sans-serif"> Matrix</text><text class="caption" text-anchor="middle" pointer-events="none" x="0" y="15" font-size="10px" fill="#FFFFFF" data-darkreader-inline-fill="" style="--darkreader-inline-fill:#dedcd9;" font-family="sans-serif"> Rel…</text></g><g class="node" aria-label="graph-node352" transform="translate(-87.25951874676657,111.75739685029976)"><circle class="outline" cx="0" cy="0" r="25" fill="#F79767" stroke="#f36924" stroke-width="2px" data-darkreader-inline-fill="" data-darkreader-inline-stroke="" style="--darkreader-inline-fill:#8b3b13; --darkreader-inline-stroke:#e8763c;"/><text class="caption" text-anchor="middle" pointer-events="none" x="0" y="-5" font-size="10px" fill="#FFFFFF" data-darkreader-inline-fill="" style="--darkreader-inline-fill:#dedcd9;" font-family="sans-serif"> The</text><text class="caption" text-anchor="middle" pointer-events="none" x="0" y="5" font-size="10px" fill="#FFFFFF" data-darkreader-inline-fill="" style="--darkreader-inline-fill:#dedcd9;" font-family="sans-serif"> Matrix</text><text class="caption" text-anchor="middle" pointer-events="none" x="0" y="15" font-size="10px" fill="#FFFFFF" data-darkreader-inline-fill="" style="--darkreader-inline-fill:#dedcd9;" font-family="sans-serif"> Rev…</text></g><g class="node" aria-label="graph-node353" transform="translate(-203.63902976974754,98.01247323321003)"><circle class="outline" cx="0" cy="0" r="25" fill="#F79767" stroke="#f36924" stroke-width="2px" data-darkreader-inline-fill="" data-darkreader-inline-stroke="" style="--darkreader-inline-fill:#8b3b13; --darkreader-inline-stroke:#e8763c;"/><text class="caption" text-anchor="middle" pointer-events="none" x="0" y="-5" font-size="10px" fill="#FFFFFF" data-darkreader-inline-fill="" style="--darkreader-inline-fill:#dedcd9;" font-family="sans-serif"> The</text><text class="caption" text-anchor="middle" pointer-events="none" x="0" y="5" font-size="10px" fill="#FFFFFF" data-darkreader-inline-fill="" style="--darkreader-inline-fill:#dedcd9;" font-family="sans-serif"> Devil's</text><text class="caption" text-anchor="middle" pointer-events="none" x="0" y="15" font-size="10px" fill="#FFFFFF" data-darkreader-inline-fill="" style="--darkreader-inline-fill:#dedcd9;" font-family="sans-serif"> Adv…</text></g><g class="node" aria-label="graph-node429" transform="translate(-225.71208054136983,-191.8972699872999)"><circle class="outline" cx="0" cy="0" r="25" fill="#F79767" stroke="#f36924" stroke-width="2px" data-darkreader-inline-fill="" data-darkreader-inline-stroke="" style="--darkreader-inline-fill:#8b3b13; --darkreader-inline-stroke:#e8763c;"/><text class="caption" text-anchor="middle" pointer-events="none" x="0" y="0" font-size="10px" fill="#FFFFFF" data-darkreader-inline-fill="" style="--darkreader-inline-fill:#dedcd9;" font-family="sans-serif"> The</text><text class="caption" text-anchor="middle" pointer-events="none" x="0" y="10" font-size="10px" fill="#FFFFFF" data-darkreader-inline-fill="" style="--darkreader-inline-fill:#dedcd9;" font-family="sans-serif"> Repla…</text></g><g class="node" aria-label="graph-node442" transform="translate(-325.7730989683432,-84.05076296742287)"><circle class="outline" cx="0" cy="0" r="25" fill="#F79767" stroke="#f36924" stroke-width="2px" data-darkreader-inline-fill="" data-darkreader-inline-stroke="" style="--darkreader-inline-fill:#8b3b13; --darkreader-inline-stroke:#e8763c;"/><text class="caption" text-anchor="middle" pointer-events="none" x="0" y="0" font-size="10px" fill="#FFFFFF" data-darkreader-inline-fill="" style="--darkreader-inline-fill:#dedcd9;" font-family="sans-serif"> Johnny</text><text class="caption" text-anchor="middle" pointer-events="none" x="0" y="10" font-size="10px" fill="#FFFFFF" data-darkreader-inline-fill="" style="--darkreader-inline-fill:#dedcd9;" font-family="sans-serif"> Mnem…</text></g><g class="node" aria-label="graph-node447" transform="translate(80.73970679268871,-196.65047874438142)"><circle class="outline" cx="0" cy="0" r="25" fill="#F79767" stroke="#f36924" stroke-width="2px" data-darkreader-inline-fill="" data-darkreader-inline-stroke="" style="--darkreader-inline-fill:#8b3b13; --darkreader-inline-stroke:#e8763c;"/><text class="caption" text-anchor="middle" pointer-events="none" x="0" y="0" font-size="10px" fill="#FFFFFF" data-darkreader-inline-fill="" style="--darkreader-inline-fill:#dedcd9;" font-family="sans-serif"> Cloud</text><text class="caption" text-anchor="middle" pointer-events="none" x="0" y="10" font-size="10px" fill="#FFFFFF" data-darkreader-inline-fill="" style="--darkreader-inline-fill:#dedcd9;" font-family="sans-serif"> Atlas</text></g><g class="node" aria-label="graph-node458" transform="translate(172.5360532943974,-235.00246780908446)"><circle class="outline" cx="0" cy="0" r="25" fill="#F79767" stroke="#f36924" stroke-width="2px" data-darkreader-inline-fill="" data-darkreader-inline-stroke="" style="--darkreader-inline-fill:#8b3b13; --darkreader-inline-stroke:#e8763c;"/><text class="caption" text-anchor="middle" pointer-events="none" x="0" y="0" font-size="10px" fill="#FFFFFF" data-darkreader-inline-fill="" style="--darkreader-inline-fill:#dedcd9;" font-family="sans-serif"> V for</text><text class="caption" text-anchor="middle" pointer-events="none" x="0" y="10" font-size="10px" fill="#FFFFFF" data-darkreader-inline-fill="" style="--darkreader-inline-fill:#dedcd9;" font-family="sans-serif"> Vende…</text></g><g class="node" aria-label="graph-node496" transform="translate(-298.02282564951855,43.47848957831689)"><circle class="outline" cx="0" cy="0" r="25" fill="#F79767" stroke="#f36924" stroke-width="2px" data-darkreader-inline-fill="" data-darkreader-inline-stroke="" style="--darkreader-inline-fill:#8b3b13; --darkreader-inline-stroke:#e8763c;"/><text class="caption" text-anchor="middle" pointer-events="none" x="0" y="5" font-size="10px" fill="#FFFFFF" data-darkreader-inline-fill="" style="--darkreader-inline-fill:#dedcd9;" font-family="sans-serif"> Somethi…</text></g></g></svg>