<svg xmlns="http://www.w3.org/2000/svg" width="551.846923828125" height="292.2371520996094" viewBox="-276.678466796875 -130.86895751953125 551.846923828125 292.2371520996094"><title>Neo4j Graph Visualization</title><desc>Created using Neo4j (http://www.neo4j.com/)</desc><g class="layer relationships"><g class="relationship" transform="translate(16.709223474350093 132.3681838160533) rotate(329.0974529581731)"><path class="outline" fill="#A5ABB6" stroke="none" d="M 24.018736134675446,-6.953439040707552 L 24.277555179777966,-5.987513214418485 A 203.16534490073366 203.16534490073366 0 0 1 51.49402607289021,-11.320387589123015 L 51.369169199861915,-12.312562352588401 A 204.16534490073366 204.16534490073366 0 0 0 24.018736134675446,-6.953439040707552 Z M 97.84426413634728,-12.829015913513103 L 97.74148641762308,-11.834311565209617 A 203.16534490073366 203.16534490073366 0 0 1 125.0697446534643,-7.10756439964401 L 124.35787429586799,-4.193247911344274 L 131.9884615190964,-5.932252979969248 L 126.01890513025938,-10.993319717376991 L 125.30703477266307,-8.079003229077255 A 204.16534490073366 204.16534490073366 0 0 0 97.84426413634728,-12.829015913513103"/><text text-anchor="middle" pointer-events="none" font-size="8px" fill="#000000" x="74.5975284088716" y="-10.397630600443478" font-family="sans-serif">twowheeler</text></g><g class="relationship" transform="translate(150.79926171713896 52.108855257639696) rotate(311.09413094870166)"><path class="outline" fill="#A5ABB6" stroke="none" d="M 24.018736134675446,-6.953439040707552 L 24.277555179777966,-5.987513214418485 A 181.1838662601811 181.1838662601811 0 0 1 45.923781335328655,-10.393478421301836 L 45.784433336971915,-11.38372189406698 A 182.1838662601811 182.1838662601811 0 0 0 24.018736134675446,-6.953439040707552 Z M 92.24697055809554,-11.938054350735314 L 92.13128753655522,-10.944768169150535 A 181.1838662601811 181.1838662601811 0 0 1 113.87647009959831,-7.056494582912042 L 113.16936939773362,-4.141017161043976 L 120.79710086760124,-5.892505848872441 L 114.8192710354179,-10.943797812069462 L 114.11217033355321,-8.028320390201397 A 182.1838662601811 182.1838662601811 0 0 0 92.24697055809554,-11.938054350735314"/><text text-anchor="middle" pointer-events="none" font-size="8px" fill="#000000" x="69.00392169781865" y="-9.648274453972192" font-family="sans-serif">twowheeler</text></g><g class="relationship" transform="translate(150.79926171713896 52.108855257639696) rotate(254.66354808602125)"><path class="outline" fill="#A5ABB6" stroke="none" d="M 24.018736134675446,-6.953439040707552 L 24.277555179777966,-5.987513214418485 A 209.81728602858482 209.81728602858482 0 0 1 53.18349840248419,-11.593906985658606 L 53.062446572704275,-12.586553173636446 A 210.81728602858482 210.81728602858482 0 0 0 24.018736134675446,-6.953439040707552 Z M 99.54033743798126,-13.092520038324977 L 99.44092399311108,-12.097473824835845 A 209.81728602858482 209.81728602858482 0 0 1 128.4620668014564,-7.121684961736501 L 127.74887767938907,-4.207690919847456 L 135.38025108620872,-5.943242683894278 L 129.41298563087946,-11.007010350921895 L 128.69979650881214,-8.09301630903285 A 210.81728602858482 210.81728602858482 0 0 0 99.54033743798126,-13.092520038324977"/><text text-anchor="middle" pointer-events="none" font-size="8px" fill="#000000" x="76.29284780844277" y="-10.624402728180428" transform="rotate(180 76.29284780844277 -13.624402728180428)" font-family="sans-serif">twowheeler</text></g><g class="relationship" transform="translate(108.57038769480565 -101.86895656476348) rotate(504.4690717777911)"><path class="outline" fill="#A5ABB6" stroke="none" d="M 24.018736134675446,6.953439040707552 L 24.277555179777966,5.987513214418485 A 191.20343272188296 191.20343272188296 0 0 0 48.460201621986684,10.820782007257122 L 48.3278585825602,11.811985982186286 A 192.20343272188296 192.20343272188296 0 0 1 24.018736134675446,6.953439040707552 Z M 94.7968456290574,12.348403730170418 L 94.68741886037782,11.35440886987368 A 191.20343272188296 191.20343272188296 0 0 0 118.97519273083289,7.080661498966321 L 118.26583494844284,4.165732419801157 L 125.89492021261661,5.911314853250406 L 119.92100310735294,10.967233604519873 L 119.2116453249629,8.052304525354709 A 192.20343272188296 192.20343272188296 0 0 1 94.7968456290574,12.348403730170418"/><text text-anchor="middle" pointer-events="none" font-size="8px" fill="#000000" x="71.5518515485355" y="15.989840858287096" transform="rotate(180 71.5518515485355 12.989840858287096)" font-family="sans-serif">twowheeler</text></g><g class="relationship" transform="translate(-106.38855084547816 21.469107880456338) rotate(535.2828207513003)"><path class="outline" fill="#A5ABB6" stroke="none" d="M 21.40063509461097,-12.933012701892217 L 21.90063509461097,-12.06698729810778 A 95.15442989407542 95.15442989407542 0 0 1 44.413736234621624,-21.45492791379408 L 44.15033164237166,-22.41961336552518 A 96.15442989407542 96.15442989407542 0 0 0 21.40063509461097,-12.933012701892217 Z M 90.38723472170403,-23.51429408193907 L 90.16977844118645,-22.53822401987209 A 95.15442989407542 95.15442989407542 0 0 1 113.10193417007756,-14.226221519277656 L 111.72656727931933,-11.560069626416706 L 119.55218306854616,-11.461390756318606 L 114.93575669108854,-17.781090709758924 L 113.56038980033031,-15.114938816897974 A 96.15442989407542 96.15442989407542 0 0 0 90.38723472170403,-23.51429408193907"/><text text-anchor="middle" pointer-events="none" font-size="8px" fill="#000000" x="67.21382026340022" y="-22.288466383908016" transform="rotate(180 67.21382026340022 -25.288466383908016)" font-family="sans-serif">twowheeler</text></g><g class="relationship" transform="translate(-247.67845893769515 33.12790381929198) rotate(394.82792318879973)"><path class="outline" fill="#A5ABB6" stroke="none" d="M 21.40063509461097,12.933012701892217 L 21.90063509461097,12.06698729810778 A 104.63712230724396 104.63712230724396 0 0 0 49.01731709932038,23.005425638645775 L 48.77646682942369,23.975987922835046 A 105.63712230724396 105.63712230724396 0 0 1 21.40063509461097,12.933012701892217 Z M 95.07179190155013,25.007119544793085 L 94.87439353251213,24.026796187986193 A 104.63712230724396 104.63712230724396 0 0 0 122.45120476222156,14.30654111544545 L 121.06836832376239,11.644255746731279 L 128.89367669563117,11.52363698715975 L 124.29498668016713,17.85625494039768 L 122.91215024170795,15.193969571683509 A 105.63712230724396 105.63712230724396 0 0 1 95.07179190155013,25.007119544793085"/><text text-anchor="middle" pointer-events="none" font-size="8px" fill="#000000" x="71.87806718005226" y="29.559634862177333" font-family="sans-serif">twowheeler</text></g><g class="relationship" transform="translate(246.16844100134992 -57.23749629986766) rotate(197.97104790171852)"><path class="outline" fill="#A5ABB6" stroke="none" d="M 21.40063509461097,12.933012701892217 L 21.90063509461097,12.06698729810778 A 98.09587432586805 98.09587432586805 0 0 0 45.8389841380138,21.941254898241226 L 45.583014268821145,22.907939658680476 A 99.09587432586805 99.09587432586805 0 0 1 21.40063509461097,12.933012701892217 Z M 91.84006107477127,23.98213180679717 L 91.62924010004001,23.00460711830415 A 98.09587432586805 98.09587432586805 0 0 0 116.00014248431106,14.25218845034951 L 114.62236068044717,11.587283705158491 L 122.44788385706741,11.481515032198976 L 117.83718488946289,17.80539477727087 L 116.459403085599,15.14049003207985 A 99.09587432586805 99.09587432586805 0 0 1 91.84006107477127,23.98213180679717"/><text text-anchor="middle" pointer-events="none" font-size="8px" fill="#000000" x="68.65957251630103" y="28.68276818519979" transform="rotate(180 68.65957251630103 25.68276818519979)" font-family="sans-serif">twowheeler</text></g><g class="relationship" transform="translate(16.709223474350093 132.3681838160533) rotate(185.27367357809226)"><path class="outline" fill="#A5ABB6" stroke="none" d="M 25 0.5 L 57.315885901071965 0.5 L 57.315885901071965 -0.5 L 25 -0.5 Z M 76.65182340107197 0.5 L 108.96770930214393 0.5 L 108.96770930214393 3.5 L 115.96770930214393 0 L 108.96770930214393 -3.5 L 108.96770930214393 -0.5 L 76.65182340107197 -0.5 Z"/><text text-anchor="middle" pointer-events="none" font-size="8px" fill="#000000" x="66.98385465107197" y="3" transform="rotate(180 66.98385465107197 0)" font-family="sans-serif">trek</text></g><g class="relationship" transform="translate(16.709223474350093 132.3681838160533) rotate(329.0974529581731)"><path class="outline" fill="#A5ABB6" stroke="none" d="M 24.018736134675446,6.953439040707552 L 24.277555179777966,5.987513214418485 A 203.16534490073366 203.16534490073366 0 0 0 64.96561038315645,12.561688790889491 L 64.90706198570429,13.55997336211945 A 204.16534490073366 204.16534490073366 0 0 1 24.018736134675446,6.953439040707552 Z M 84.28199421432906,13.775276908154638 L 84.24564437017197,12.775937782116955 A 203.16534490073366 203.16534490073366 0 0 0 125.0697446534643,7.10756439964401 L 124.35787429586799,4.193247911344274 L 131.9884615190964,5.932252979969248 L 126.01890513025938,10.993319717376991 L 125.30703477266307,8.079003229077255 A 204.16534490073366 204.16534490073366 0 0 1 84.28199421432906,13.775276908154638"/><text text-anchor="middle" pointer-events="none" font-size="8px" fill="#000000" x="74.59752840887163" y="16.397630600443478" font-family="sans-serif">trek</text></g><g class="relationship" transform="translate(16.709223474350093 132.3681838160533) rotate(222.01576414174428)"><path class="outline" fill="#A5ABB6" stroke="none" d="M 25 0.5 L 69.67475435508732 0.5 L 69.67475435508732 -0.5 L 25 -0.5 Z M 89.01069185508732 0.5 L 133.68544621017463 0.5 L 133.68544621017463 3.5 L 140.68544621017463 0 L 133.68544621017463 -3.5 L 133.68544621017463 -0.5 L 89.01069185508732 -0.5 Z"/><text text-anchor="middle" pointer-events="none" font-size="8px" fill="#000000" x="79.34272310508732" y="3" transform="rotate(180 79.34272310508732 0)" font-family="sans-serif">trek</text></g><g class="relationship" transform="translate(-123.6617745557541 119.41141037795379) rotate(309.38490903811385)"><path class="outline" fill="#A5ABB6" stroke="none" d="M 25 0.5 L 73.51905506299988 0.5 L 73.51905506299988 -0.5 L 25 -0.5 Z M 92.85499256299988 0.5 L 141.37404762599976 0.5 L 141.37404762599976 3.5 L 148.37404762599976 0 L 141.37404762599976 -3.5 L 141.37404762599976 -0.5 L 92.85499256299988 -0.5 Z"/><text text-anchor="middle" pointer-events="none" font-size="8px" fill="#000000" x="83.18702381299988" y="3" font-family="sans-serif">trek</text></g><g class="relationship" transform="translate(150.79926171713896 52.108855257639696) rotate(254.66354808602125)"><path class="outline" fill="#A5ABB6" stroke="none" d="M 24.018736134675446,6.953439040707552 L 24.277555179777966,5.987513214418485 A 209.81728602858482 209.81728602858482 0 0 0 66.6596864897126,12.797847934783107 L 66.60286286697085,13.796232167380197 A 210.81728602858482 210.81728602858482 0 0 1 24.018736134675446,6.953439040707552 Z M 85.97679563081154,14.00714036124856 L 85.94172008755599,13.007755697435215 A 209.81728602858482 209.81728602858482 0 0 0 128.4620668014564,7.121684961736501 L 127.74887767938907,4.207690919847456 L 135.38025108620872,5.943242683894278 L 129.41298563087946,11.007010350921895 L 128.69979650881214,8.09301630903285 A 210.81728602858482 210.81728602858482 0 0 1 85.97679563081154,14.00714036124856"/><text text-anchor="middle" pointer-events="none" font-size="8px" fill="#000000" x="76.29284780844274" y="16.624402728180428" transform="rotate(180 76.29284780844274 13.624402728180428)" font-family="sans-serif">trek</text></g><g class="relationship" transform="translate(150.79926171713896 52.108855257639696) rotate(311.09413094870166)"><path class="outline" fill="#A5ABB6" stroke="none" d="M 24.018736134675446,6.953439040707552 L 24.277555179777966,5.987513214418485 A 181.1838662601811 181.1838662601811 0 0 0 59.37681932717522,11.776899116283602 L 59.311722079006834,12.774778040943772 A 182.1838662601811 182.1838662601811 0 0 1 24.018736134675446,6.953439040707552 Z M 78.6903443510935,13.005979347058599 L 78.64907311192057,12.006831367619554 A 181.1838662601811 181.1838662601811 0 0 0 113.87647009959831,7.056494582912042 L 113.16936939773362,4.141017161043976 L 120.79710086760124,5.892505848872441 L 114.8192710354179,10.943797812069462 L 114.11217033355321,8.028320390201397 A 182.1838662601811 182.1838662601811 0 0 1 78.6903443510935,13.005979347058599"/><text text-anchor="middle" pointer-events="none" font-size="8px" fill="#000000" x="69.0039216978187" y="15.648274453972192" font-family="sans-serif">trek</text></g><g class="relationship" transform="translate(108.57038769480565 -101.86895656476348) rotate(504.4690717777911)"><path class="outline" fill="#A5ABB6" stroke="none" d="M 24.018736134675446,-6.953439040707552 L 24.277555179777966,-5.987513214418485 A 191.20343272188296 191.20343272188296 0 0 1 61.92240533325562,-12.135533564770299 L 61.86047004498519,-13.13361373192464 A 192.20343272188296 192.20343272188296 0 0 0 24.018736134675446,-6.953439040707552 Z M 81.2373317071998,-13.357291783814276 L 81.19845265834934,-12.35804785985954 A 191.20343272188296 191.20343272188296 0 0 1 118.97519273083289,-7.080661498966321 L 118.26583494844284,-4.165732419801157 L 125.89492021261661,-5.911314853250406 L 119.92100310735294,-10.967233604519873 L 119.2116453249629,-8.052304525354709 A 192.20343272188296 192.20343272188296 0 0 0 81.2373317071998,-13.357291783814276"/><text text-anchor="middle" pointer-events="none" font-size="8px" fill="#000000" x="71.5518515485355" y="-9.989840858287096" transform="rotate(180 71.5518515485355 -12.989840858287096)" font-family="sans-serif">trek</text></g><g class="relationship" transform="translate(-106.38855084547816 21.469107880456338) rotate(535.2828207513003)"><path class="outline" fill="#A5ABB6" stroke="none" d="M 25 0.5 L 56.37919837952704 0.5 L 56.37919837952704 -0.5 L 25 -0.5 Z M 78.39091712952704 0.5 L 109.77011550905408 0.5 L 109.77011550905408 3.5 L 116.77011550905408 0 L 109.77011550905408 -3.5 L 109.77011550905408 -0.5 L 78.39091712952704 -0.5 Z"/><text text-anchor="middle" pointer-events="none" font-size="8px" fill="#000000" x="67.38505775452704" y="3" transform="rotate(180 67.38505775452704 0)" font-family="sans-serif">road</text></g><g class="relationship" transform="translate(-106.38855084547816 21.469107880456338) rotate(535.2828207513003)"><path class="outline" fill="#A5ABB6" stroke="none" d="M 21.40063509461097,12.933012701892217 L 21.90063509461097,12.06698729810778 A 95.15442989407542 95.15442989407542 0 0 0 57.638771579980535,24.07588416751615 L 57.514351955220576,25.068113857141796 A 96.15442989407542 96.15442989407542 0 0 1 21.40063509461097,12.933012701892217 Z M 76.912849069248,25.527382521431463 L 76.83552554878419,24.530376466694037 A 95.15442989407542 95.15442989407542 0 0 0 113.10193417007756,14.226221519277656 L 111.72656727931933,11.560069626416706 L 119.55218306854616,11.461390756318606 L 114.93575669108854,17.781090709758924 L 113.56038980033031,15.114938816897974 A 96.15442989407542 96.15442989407542 0 0 1 76.912849069248,25.527382521431463"/><text text-anchor="middle" pointer-events="none" font-size="8px" fill="#000000" x="67.21382026340024" y="28.288466383908016" transform="rotate(180 67.21382026340024 25.288466383908016)" font-family="sans-serif">trek</text></g><g class="relationship" transform="translate(-247.67845893769515 33.12790381929198) rotate(394.82792318879973)"><path class="outline" fill="#A5ABB6" stroke="none" d="M 25 0.5 L 62.3717253007913 0.5 L 62.3717253007913 -0.5 L 25 -0.5 Z M 81.7076628007913 0.5 L 119.0793881015826 0.5 L 119.0793881015826 3.5 L 126.0793881015826 0 L 119.0793881015826 -3.5 L 119.0793881015826 -0.5 L 81.7076628007913 -0.5 Z"/><text text-anchor="middle" pointer-events="none" font-size="8px" fill="#000000" x="72.0396940507913" y="3" font-family="sans-serif">trek</text></g><g class="relationship" transform="translate(-247.67845893769515 33.12790381929198) rotate(394.82792318879973)"><path class="outline" fill="#A5ABB6" stroke="none" d="M 21.40063509461097,-12.933012701892217 L 21.90063509461097,-12.06698729810778 A 104.63712230724396 104.63712230724396 0 0 1 60.97114150264378,-25.243650497316068 L 60.844531993002555,-26.2356031333166 A 105.63712230724396 105.63712230724396 0 0 0 21.40063509461097,-12.933012701892217 Z M 82.91508780913031,-26.727178642954854 L 82.83276928917286,-25.730572571694992 A 104.63712230724396 104.63712230724396 0 0 1 122.45120476222156,-14.30654111544545 L 121.06836832376239,-11.644255746731279 L 128.89367669563117,-11.52363698715975 L 124.29498668016713,-17.85625494039768 L 122.91215024170795,-15.193969571683509 A 105.63712230724396 105.63712230724396 0 0 0 82.91508780913031,-26.727178642954854"/><text text-anchor="middle" pointer-events="none" font-size="8px" fill="#000000" x="71.87806718005224" y="-23.559634862177333" font-family="sans-serif">road</text></g><g class="relationship" transform="translate(246.16844100134992 -57.23749629986766) rotate(197.97104790171852)"><path class="outline" fill="#A5ABB6" stroke="none" d="M 25 0.5 L 59.15974295016298 0.5 L 59.15974295016298 -0.5 L 25 -0.5 Z M 78.49568045016298 0.5 L 112.65542340032596 0.5 L 112.65542340032596 3.5 L 119.65542340032596 0 L 112.65542340032596 -3.5 L 112.65542340032596 -0.5 L 78.49568045016298 -0.5 Z"/><text text-anchor="middle" pointer-events="none" font-size="8px" fill="#000000" x="68.82771170016298" y="3" transform="rotate(180 68.82771170016298 0)" font-family="sans-serif">trek</text></g><g class="relationship" transform="translate(246.16844100134992 -57.23749629986766) rotate(197.97104790171852)"><path class="outline" fill="#A5ABB6" stroke="none" d="M 21.40063509461097,-12.933012701892217 L 21.90063509461097,-12.06698729810778 A 98.09587432586805 98.09587432586805 0 0 1 57.76097923213904,-24.31885866504288 L 57.62654347613979,-25.309780976583454 A 99.09587432586805 99.09587432586805 0 0 0 21.40063509461097,-12.933012701892217 Z M 79.69802221399704,-25.822330107897244 L 79.60972943676515,-24.82623554135816 A 98.09587432586805 98.09587432586805 0 0 1 116.00014248431106,-14.25218845034951 L 114.62236068044717,-11.587283705158491 L 122.44788385706741,-11.481515032198976 L 117.83718488946289,-17.80539477727087 L 116.459403085599,-15.14049003207985 A 99.09587432586805 99.09587432586805 0 0 0 79.69802221399704,-25.822330107897244"/><text text-anchor="middle" pointer-events="none" font-size="8px" fill="#000000" x="68.65957251630101" y="-22.68276818519979" transform="rotate(180 68.65957251630101 -25.68276818519979)" font-family="sans-serif">road</text></g></g><g class="layer nodes"><g class="node" aria-label="graph-node1297" transform="translate(16.709223474350093,132.3681838160533)"><circle class="outline" cx="0" cy="0" r="25" fill="#57C7E3" stroke="#23b3d7" stroke-width="2px"/><text class="caption" text-anchor="middle" pointer-events="none" x="0" y="5" font-size="10px" fill="#2A2C34" font-family="sans-serif"> Rimbik</text></g><g class="node" aria-label="graph-node1301" transform="translate(150.79926171713896,52.108855257639696)"><circle class="outline" cx="0" cy="0" r="25" fill="#F16667" stroke="#eb2728" stroke-width="2px"/><text class="caption" text-anchor="middle" pointer-events="none" x="0" y="5" font-size="10px" fill="#FFFFFF" font-family="sans-serif"> Sirikhola</text></g><g class="node" aria-label="graph-node1305" transform="translate(246.16844100134992,-57.23749629986766)"><circle class="outline" cx="0" cy="0" r="25" fill="#F16667" stroke="#eb2728" stroke-width="2px"/><text class="caption" text-anchor="middle" pointer-events="none" x="0" y="5" font-size="10px" fill="#FFFFFF" font-family="sans-serif"> Rammam</text></g><g class="node" aria-label="graph-node1302" transform="translate(108.57038769480565,-101.86895656476348)"><circle class="outline" cx="0" cy="0" r="25" fill="#F16667" stroke="#eb2728" stroke-width="2px"/><text class="caption" text-anchor="middle" pointer-events="none" x="0" y="5" font-size="10px" fill="#FFFFFF" font-family="sans-serif"> Gurdum</text></g><g class="node" aria-label="graph-node1300" transform="translate(-13.651266612407081,-14.58951697805079)"><circle class="outline" cx="0" cy="0" r="25" fill="#D9C8AE" stroke="#c0a378" stroke-width="2px"/><text class="caption" text-anchor="middle" pointer-events="none" x="0" y="5" font-size="10px" fill="#2A2C34" font-family="sans-serif"> Sandakp…</text></g><g class="node" aria-label="graph-node1303" transform="translate(-106.38855084547816,21.469107880456338)"><circle class="outline" cx="0" cy="0" r="25" fill="#F16667" stroke="#eb2728" stroke-width="2px"/><text class="caption" text-anchor="middle" pointer-events="none" x="0" y="5" font-size="10px" fill="#FFFFFF" font-family="sans-serif"> Tumbling</text></g><g class="node" aria-label="graph-node1304" transform="translate(-247.67845893769515,33.12790381929198)"><circle class="outline" cx="0" cy="0" r="25" fill="#F16667" stroke="#eb2728" stroke-width="2px"/><text class="caption" text-anchor="middle" pointer-events="none" x="0" y="5" font-size="10px" fill="#FFFFFF" font-family="sans-serif"> Gairibus</text></g><g class="node" aria-label="graph-node1299" transform="translate(-123.6617745557541,119.41141037795379)"><circle class="outline" cx="0" cy="0" r="25" fill="#F16667" stroke="#eb2728" stroke-width="2px"/><text class="caption" text-anchor="middle" pointer-events="none" x="0" y="5" font-size="10px" fill="#FFFFFF" font-family="sans-serif"> BhikeBh…</text></g></g></svg>