<svg xmlns="http://www.w3.org/2000/svg" width="614.3132934570312" height="737.663330078125" viewBox="-60.805824279785156 -451.23760986328125 614.3132934570312 737.663330078125"><title>Neo4j Graph Visualization</title><desc>Created using Neo4j (http://www.neo4j.com/)</desc><g class="layer relationships"><g class="relationship" transform="translate(181.1146770748199 109.81746651111838) rotate(282.6414555909828)"><path class="outline" fill="#A5ABB6" stroke="none" d="M 25 0.5 L 127.73378718044523 0.5 L 127.73378718044523 -0.5 L 25 -0.5 Z M 162.17909968044523 0.5 L 264.91288686089047 0.5 L 264.91288686089047 3.5 L 271.91288686089047 0 L 264.91288686089047 -3.5 L 264.91288686089047 -0.5 L 162.17909968044523 -0.5 Z"/><text text-anchor="middle" pointer-events="none" font-size="8px" fill="#000000" x="144.95644343044523" y="3" font-family="sans-serif">ORIGIN</text></g><g class="relationship" transform="translate(181.1146770748199 109.81746651111838) rotate(484.912436502519)"><path class="outline" fill="#A5ABB6" stroke="none" d="M 25 0.5 L 55.86759787744698 0.5 L 55.86759787744698 -0.5 L 25 -0.5 Z M 115.05509787744698 0.5 L 145.92269575489397 0.5 L 145.92269575489397 3.5 L 152.92269575489397 0 L 145.92269575489397 -3.5 L 145.92269575489397 -0.5 L 115.05509787744698 -0.5 Z"/><text text-anchor="middle" pointer-events="none" font-size="8px" fill="#000000" x="85.46134787744698" y="3" transform="rotate(180 85.46134787744698 0)" font-family="sans-serif">DESTINATION</text></g><g class="relationship" transform="translate(420.5191587813874 -45.433102528310954) rotate(217.62868874320225)"><path class="outline" fill="#A5ABB6" stroke="none" d="M 25 0.5 L 89.39654913536897 0.5 L 89.39654913536897 -0.5 L 25 -0.5 Z M 123.84186163536897 0.5 L 188.23841077073794 0.5 L 188.23841077073794 3.5 L 195.23841077073794 0 L 188.23841077073794 -3.5 L 188.23841077073794 -0.5 L 123.84186163536897 -0.5 Z"/><text text-anchor="middle" pointer-events="none" font-size="8px" fill="#000000" x="106.61920538536897" y="3" transform="rotate(180 106.61920538536897 0)" font-family="sans-serif">ORIGIN</text></g><g class="relationship" transform="translate(420.5191587813874 -45.433102528310954) rotate(409.5872622891918)"><path class="outline" fill="#A5ABB6" stroke="none" d="M 25 0.5 L 47.10836984146161 0.5 L 47.10836984146161 -0.5 L 25 -0.5 Z M 106.29586984146161 0.5 L 128.40423968292322 0.5 L 128.40423968292322 3.5 L 135.40423968292322 0 L 128.40423968292322 -3.5 L 128.40423968292322 -0.5 L 106.29586984146161 -0.5 Z"/><text text-anchor="middle" pointer-events="none" font-size="8px" fill="#000000" x="76.70211984146161" y="3" font-family="sans-serif">DESTINATION</text></g><g class="relationship" transform="translate(318.7440208220322 -61.87387295004752) rotate(238.38544785792527)"><path class="outline" fill="#A5ABB6" stroke="none" d="M 25 0.5 L 48.57328124127443 0.5 L 48.57328124127443 -0.5 L 25 -0.5 Z M 83.01859374127443 0.5 L 106.59187498254886 0.5 L 106.59187498254886 3.5 L 113.59187498254886 0 L 106.59187498254886 -3.5 L 106.59187498254886 -0.5 L 83.01859374127443 -0.5 Z"/><text text-anchor="middle" pointer-events="none" font-size="8px" fill="#000000" x="65.79593749127443" y="3" transform="rotate(180 65.79593749127443 0)" font-family="sans-serif">ORIGIN</text></g><g class="relationship" transform="translate(318.7440208220322 -61.87387295004752) rotate(208.64350144734703)"><path class="outline" fill="#A5ABB6" stroke="none" d="M 25 0.5 L 61.3979492908759 0.5 L 61.3979492908759 -0.5 L 25 -0.5 Z M 120.5854492908759 0.5 L 156.9833985817518 0.5 L 156.9833985817518 3.5 L 163.9833985817518 0 L 156.9833985817518 -3.5 L 156.9833985817518 -0.5 L 120.5854492908759 -0.5 Z"/><text text-anchor="middle" pointer-events="none" font-size="8px" fill="#000000" x="90.9916992908759" y="3" transform="rotate(180 90.9916992908759 0)" font-family="sans-serif">DESTINATION</text></g><g class="relationship" transform="translate(356.34438696434137 29.27588422822977) rotate(242.20734559259137)"><path class="outline" fill="#A5ABB6" stroke="none" d="M 25 0.5 L 97.50258901593406 0.5 L 97.50258901593406 -0.5 L 25 -0.5 Z M 131.94790151593406 0.5 L 204.45049053186813 0.5 L 204.45049053186813 3.5 L 211.45049053186813 0 L 204.45049053186813 -3.5 L 204.45049053186813 -0.5 L 131.94790151593406 -0.5 Z"/><text text-anchor="middle" pointer-events="none" font-size="8px" fill="#000000" x="114.72524526593406" y="3" transform="rotate(180 114.72524526593406 0)" font-family="sans-serif">ORIGIN</text></g><g class="relationship" transform="translate(356.34438696434137 29.27588422822977) rotate(487.34356854074247)"><path class="outline" fill="#A5ABB6" stroke="none" d="M 25 0.5 L 72.81753216801224 0.5 L 72.81753216801224 -0.5 L 25 -0.5 Z M 132.00503216801224 0.5 L 179.82256433602447 0.5 L 179.82256433602447 3.5 L 186.82256433602447 0 L 179.82256433602447 -3.5 L 179.82256433602447 -0.5 L 132.00503216801224 -0.5 Z"/><text text-anchor="middle" pointer-events="none" font-size="8px" fill="#000000" x="102.41128216801224" y="3" transform="rotate(180 102.41128216801224 0)" font-family="sans-serif">DESTINATION</text></g><g class="relationship" transform="translate(432.39547205310396 -263.1472378397849) rotate(515.922391558473)"><path class="outline" fill="#A5ABB6" stroke="none" d="M 25 0.5 L 81.30522287384896 0.5 L 81.30522287384896 -0.5 L 25 -0.5 Z M 115.75053537384896 0.5 L 172.05575824769792 0.5 L 172.05575824769792 3.5 L 179.05575824769792 0 L 172.05575824769792 -3.5 L 172.05575824769792 -0.5 L 115.75053537384896 -0.5 Z"/><text text-anchor="middle" pointer-events="none" font-size="8px" fill="#000000" x="98.52787912384896" y="3" transform="rotate(180 98.52787912384896 0)" font-family="sans-serif">ORIGIN</text></g><g class="relationship" transform="translate(432.39547205310396 -263.1472378397849) rotate(280.71175254355313)"><path class="outline" fill="#A5ABB6" stroke="none" d="M 25 0.5 L 47.86211396034196 0.5 L 47.86211396034196 -0.5 L 25 -0.5 Z M 107.04961396034196 0.5 L 129.91172792068392 0.5 L 129.91172792068392 3.5 L 136.91172792068392 0 L 129.91172792068392 -3.5 L 129.91172792068392 -0.5 L 107.04961396034196 -0.5 Z"/><text text-anchor="middle" pointer-events="none" font-size="8px" fill="#000000" x="77.45586396034196" y="3" font-family="sans-serif">DESTINATION</text></g><g class="relationship" transform="translate(383.9993784821888 -136.74251122492691) rotate(197.376683001301)"><path class="outline" fill="#A5ABB6" stroke="none" d="M 25 0.5 L 51.52746107718855 0.5 L 51.52746107718855 -0.5 L 25 -0.5 Z M 85.97277357718855 0.5 L 112.5002346543771 0.5 L 112.5002346543771 3.5 L 119.5002346543771 0 L 112.5002346543771 -3.5 L 112.5002346543771 -0.5 L 85.97277357718855 -0.5 Z"/><text text-anchor="middle" pointer-events="none" font-size="8px" fill="#000000" x="68.75011732718855" y="3" transform="rotate(180 68.75011732718855 0)" font-family="sans-serif">ORIGIN</text></g><g class="relationship" transform="translate(383.9993784821888 -136.74251122492691) rotate(521.9931331306782)"><path class="outline" fill="#A5ABB6" stroke="none" d="M 25 0.5 L 51.061910701730085 0.5 L 51.061910701730085 -0.5 L 25 -0.5 Z M 110.24941070173008 0.5 L 136.31132140346017 0.5 L 136.31132140346017 3.5 L 143.31132140346017 0 L 136.31132140346017 -3.5 L 136.31132140346017 -0.5 L 110.24941070173008 -0.5 Z"/><text text-anchor="middle" pointer-events="none" font-size="8px" fill="#000000" x="80.65566070173008" y="3" transform="rotate(180 80.65566070173008 0)" font-family="sans-serif">DESTINATION</text></g><g class="relationship" transform="translate(354.3966898484012 -324.76584386278535) rotate(486.781670682131)"><path class="outline" fill="#A5ABB6" stroke="none" d="M 25 0.5 L 69.71549644068014 0.5 L 69.71549644068014 -0.5 L 25 -0.5 Z M 104.16080894068014 0.5 L 148.87630538136028 0.5 L 148.87630538136028 3.5 L 155.87630538136028 0 L 148.87630538136028 -3.5 L 148.87630538136028 -0.5 L 104.16080894068014 -0.5 Z"/><text text-anchor="middle" pointer-events="none" font-size="8px" fill="#000000" x="86.93815269068014" y="3" transform="rotate(180 86.93815269068014 0)" font-family="sans-serif">ORIGIN</text></g><g class="relationship" transform="translate(354.3966898484012 -324.76584386278535) rotate(317.95776631245457)"><path class="outline" fill="#A5ABB6" stroke="none" d="M 25 0.5 L 39.6813222750182 0.5 L 39.6813222750182 -0.5 L 25 -0.5 Z M 98.8688222750182 0.5 L 113.5501445500364 0.5 L 113.5501445500364 3.5 L 120.5501445500364 0 L 113.5501445500364 -3.5 L 113.5501445500364 -0.5 L 98.8688222750182 -0.5 Z"/><text text-anchor="middle" pointer-events="none" font-size="8px" fill="#000000" x="69.2750722750182" y="3" font-family="sans-serif">DESTINATION</text></g><g class="relationship" transform="translate(262.08782589011884 -286.7162235041381) rotate(458.51566637125495)"><path class="outline" fill="#A5ABB6" stroke="none" d="M 25 0.5 L 33.281904776684016 0.5 L 33.281904776684016 -0.5 L 25 -0.5 Z M 67.72721727668402 0.5 L 76.00912205336803 0.5 L 76.00912205336803 3.5 L 83.00912205336803 0 L 76.00912205336803 -3.5 L 76.00912205336803 -0.5 L 67.72721727668402 -0.5 Z"/><text text-anchor="middle" pointer-events="none" font-size="8px" fill="#000000" x="50.504561026684016" y="3" transform="rotate(180 50.504561026684016 0)" font-family="sans-serif">ORIGIN</text></g><g class="relationship" transform="translate(262.08782589011884 -286.7162235041381) rotate(489.12465951196566)"><path class="outline" fill="#A5ABB6" stroke="none" d="M 25 0.5 L 53.43366006486984 0.5 L 53.43366006486984 -0.5 L 25 -0.5 Z M 112.62116006486984 0.5 L 141.05482012973968 0.5 L 141.05482012973968 3.5 L 148.05482012973968 0 L 141.05482012973968 -3.5 L 141.05482012973968 -0.5 L 112.62116006486984 -0.5 Z"/><text text-anchor="middle" pointer-events="none" font-size="8px" fill="#000000" x="83.02741006486984" y="3" transform="rotate(180 83.02741006486984 0)" font-family="sans-serif">DESTINATION</text></g><g class="relationship" transform="translate(185.40206758860433 -347.0243509146293) rotate(430.0415701047543)"><path class="outline" fill="#A5ABB6" stroke="none" d="M 25 0.5 L 68.1800399974534 0.5 L 68.1800399974534 -0.5 L 25 -0.5 Z M 102.6253524974534 0.5 L 145.8053924949068 0.5 L 145.8053924949068 3.5 L 152.8053924949068 0 L 145.8053924949068 -3.5 L 145.8053924949068 -0.5 L 102.6253524974534 -0.5 Z"/><text text-anchor="middle" pointer-events="none" font-size="8px" fill="#000000" x="85.4026962474534" y="3" font-family="sans-serif">ORIGIN</text></g><g class="relationship" transform="translate(185.40206758860433 -347.0243509146293) rotate(459.48722042415807)"><path class="outline" fill="#A5ABB6" stroke="none" d="M 25 0.5 L 65.53511361109578 0.5 L 65.53511361109578 -0.5 L 25 -0.5 Z M 124.72261361109578 0.5 L 165.25772722219156 0.5 L 165.25772722219156 3.5 L 172.25772722219156 0 L 165.25772722219156 -3.5 L 165.25772722219156 -0.5 L 124.72261361109578 -0.5 Z"/><text text-anchor="middle" pointer-events="none" font-size="8px" fill="#000000" x="95.12886361109578" y="3" transform="rotate(180 95.12886361109578 0)" font-family="sans-serif">DESTINATION</text></g><g class="relationship" transform="translate(341.139117302753 -226.63658637409915) rotate(513.8142405951289)"><path class="outline" fill="#A5ABB6" stroke="none" d="M 25 0.5 L 32.23513586650321 0.5 L 32.23513586650321 -0.5 L 25 -0.5 Z M 66.68044836650321 0.5 L 73.91558423300641 0.5 L 73.91558423300641 3.5 L 80.91558423300641 0 L 73.91558423300641 -3.5 L 73.91558423300641 -0.5 L 66.68044836650321 -0.5 Z"/><text text-anchor="middle" pointer-events="none" font-size="8px" fill="#000000" x="49.45779211650321" y="3" transform="rotate(180 49.45779211650321 0)" font-family="sans-serif">ORIGIN</text></g><g class="relationship" transform="translate(341.139117302753 -226.63658637409915) rotate(187.4316723907641)"><path class="outline" fill="#A5ABB6" stroke="none" d="M 25 0.5 L 52.75945392458098 0.5 L 52.75945392458098 -0.5 L 25 -0.5 Z M 111.94695392458098 0.5 L 139.70640784916196 0.5 L 139.70640784916196 3.5 L 146.70640784916196 0 L 139.70640784916196 -3.5 L 139.70640784916196 -0.5 L 111.94695392458098 -0.5 Z"/><text text-anchor="middle" pointer-events="none" font-size="8px" fill="#000000" x="82.35320392458098" y="3" transform="rotate(180 82.35320392458098 0)" font-family="sans-serif">DESTINATION</text></g><g class="relationship" transform="translate(275.27651382274644 -384.3161106957574) rotate(458.1246232117115)"><path class="outline" fill="#A5ABB6" stroke="none" d="M 25 0.5 L 82.52274299439426 0.5 L 82.52274299439426 -0.5 L 25 -0.5 Z M 116.96805549439426 0.5 L 174.49079848878853 0.5 L 174.49079848878853 3.5 L 181.49079848878853 0 L 174.49079848878853 -3.5 L 174.49079848878853 -0.5 L 116.96805549439426 -0.5 Z"/><text text-anchor="middle" pointer-events="none" font-size="8px" fill="#000000" x="99.74539924439426" y="3" transform="rotate(180 99.74539924439426 0)" font-family="sans-serif">ORIGIN</text></g><g class="relationship" transform="translate(275.27651382274644 -384.3161106957574) rotate(487.61996147048205)"><path class="outline" fill="#A5ABB6" stroke="none" d="M 25 0.5 L 52.42215794374221 0.5 L 52.42215794374221 -0.5 L 25 -0.5 Z M 111.6096579437422 0.5 L 139.0318158874844 0.5 L 139.0318158874844 3.5 L 146.0318158874844 0 L 139.0318158874844 -3.5 L 139.0318158874844 -0.5 L 111.6096579437422 -0.5 Z"/><text text-anchor="middle" pointer-events="none" font-size="8px" fill="#000000" x="82.0159079437422" y="3" transform="rotate(180 82.0159079437422 0)" font-family="sans-serif">DESTINATION</text></g><g class="relationship" transform="translate(95.6589634827743 -314.1866376285482) rotate(401.75434709550825)"><path class="outline" fill="#A5ABB6" stroke="none" d="M 25 0.5 L 80.10409179890516 0.5 L 80.10409179890516 -0.5 L 25 -0.5 Z M 114.54940429890516 0.5 L 169.65349609781032 0.5 L 169.65349609781032 3.5 L 176.65349609781032 0 L 169.65349609781032 -3.5 L 169.65349609781032 -0.5 L 114.54940429890516 -0.5 Z"/><text text-anchor="middle" pointer-events="none" font-size="8px" fill="#000000" x="97.32674804890516" y="3" font-family="sans-serif">ORIGIN</text></g><g class="relationship" transform="translate(95.6589634827743 -314.1866376285482) rotate(430.5123352363612)"><path class="outline" fill="#A5ABB6" stroke="none" d="M 25 0.5 L 52.68099920222811 0.5 L 52.68099920222811 -0.5 L 25 -0.5 Z M 111.86849920222811 0.5 L 139.54949840445622 0.5 L 139.54949840445622 3.5 L 146.54949840445622 0 L 139.54949840445622 -3.5 L 139.54949840445622 -0.5 L 111.86849920222811 -0.5 Z"/><text text-anchor="middle" pointer-events="none" font-size="8px" fill="#000000" x="82.27474920222811" y="3" font-family="sans-serif">DESTINATION</text></g><g class="relationship" transform="translate(79.60108244511379 -216.7893376675114) rotate(372.4937418216948)"><path class="outline" fill="#A5ABB6" stroke="none" d="M 25 0.5 L 64.54284677912041 0.5 L 64.54284677912041 -0.5 L 25 -0.5 Z M 98.98815927912041 0.5 L 138.53100605824082 0.5 L 138.53100605824082 3.5 L 145.53100605824082 0 L 138.53100605824082 -3.5 L 138.53100605824082 -0.5 L 98.98815927912041 -0.5 Z"/><text text-anchor="middle" pointer-events="none" font-size="8px" fill="#000000" x="81.76550302912041" y="3" font-family="sans-serif">ORIGIN</text></g><g class="relationship" transform="translate(79.60108244511379 -216.7893376675114) rotate(402.4615920616976)"><path class="outline" fill="#A5ABB6" stroke="none" d="M 25 0.5 L 64.72722921213627 0.5 L 64.72722921213627 -0.5 L 25 -0.5 Z M 123.91472921213627 0.5 L 163.64195842427253 0.5 L 163.64195842427253 3.5 L 170.64195842427253 0 L 163.64195842427253 -3.5 L 163.64195842427253 -0.5 L 123.91472921213627 -0.5 Z"/><text text-anchor="middle" pointer-events="none" font-size="8px" fill="#000000" x="94.32097921213627" y="3" font-family="sans-serif">DESTINATION</text></g><g class="relationship" transform="translate(3.835894515217569 -279.55394590905956) rotate(382.3604786729256)"><path class="outline" fill="#A5ABB6" stroke="none" d="M 25 0.5 L 110.2546838674325 0.5 L 110.2546838674325 -0.5 L 25 -0.5 Z M 144.6999963674325 0.5 L 229.954680234865 0.5 L 229.954680234865 3.5 L 236.954680234865 0 L 229.954680234865 -3.5 L 229.954680234865 -0.5 L 144.6999963674325 -0.5 Z"/><text text-anchor="middle" pointer-events="none" font-size="8px" fill="#000000" x="127.4773401174325" y="3" font-family="sans-serif">ORIGIN</text></g><g class="relationship" transform="translate(3.835894515217569 -279.55394590905956) rotate(400.45247168316564)"><path class="outline" fill="#A5ABB6" stroke="none" d="M 25 0.5 L 64.84549823221593 0.5 L 64.84549823221593 -0.5 L 25 -0.5 Z M 124.03299823221593 0.5 L 163.87849646443186 0.5 L 163.87849646443186 3.5 L 170.87849646443186 0 L 163.87849646443186 -3.5 L 163.87849646443186 -0.5 L 124.03299823221593 -0.5 Z"/><text text-anchor="middle" pointer-events="none" font-size="8px" fill="#000000" x="94.43924823221593" y="3" font-family="sans-serif">DESTINATION</text></g><g class="relationship" transform="translate(-14.810026667975757 -184.93241985680322) rotate(361.1054775087463)"><path class="outline" fill="#A5ABB6" stroke="none" d="M 25 0.5 L 109.75356895061253 0.5 L 109.75356895061253 -0.5 L 25 -0.5 Z M 144.19888145061253 0.5 L 228.95245040122506 0.5 L 228.95245040122506 3.5 L 235.95245040122506 0 L 228.95245040122506 -3.5 L 228.95245040122506 -0.5 L 144.19888145061253 -0.5 Z"/><text text-anchor="middle" pointer-events="none" font-size="8px" fill="#000000" x="126.97622520061253" y="3" font-family="sans-serif">ORIGIN</text></g><g class="relationship" transform="translate(-14.810026667975757 -184.93241985680322) rotate(370.95735369422397)"><path class="outline" fill="#A5ABB6" stroke="none" d="M 25 0.5 L 52.312585287799195 0.5 L 52.312585287799195 -0.5 L 25 -0.5 Z M 111.5000852877992 0.5 L 138.8126705755984 0.5 L 138.8126705755984 3.5 L 145.8126705755984 0 L 138.8126705755984 -3.5 L 138.8126705755984 -0.5 L 111.5000852877992 -0.5 Z"/><text text-anchor="middle" pointer-events="none" font-size="8px" fill="#000000" x="81.9063352877992" y="3" font-family="sans-serif">DESTINATION</text></g><g class="relationship" transform="translate(59.805573670251725 -121.9213909942692) rotate(342.7128616537158)"><path class="outline" fill="#A5ABB6" stroke="none" d="M 25 0.5 L 76.82809181445785 0.5 L 76.82809181445785 -0.5 L 25 -0.5 Z M 111.27340431445785 0.5 L 163.1014961289157 0.5 L 163.1014961289157 3.5 L 170.1014961289157 0 L 163.1014961289157 -3.5 L 163.1014961289157 -0.5 L 111.27340431445785 -0.5 Z"/><text text-anchor="middle" pointer-events="none" font-size="8px" fill="#000000" x="94.05074806445785" y="3" font-family="sans-serif">ORIGIN</text></g><g class="relationship" transform="translate(59.805573670251725 -121.9213909942692) rotate(311.18865998611074)"><path class="outline" fill="#A5ABB6" stroke="none" d="M 25 0.5 L 51.236292448296396 0.5 L 51.236292448296396 -0.5 L 25 -0.5 Z M 110.4237924482964 0.5 L 136.6600848965928 0.5 L 136.6600848965928 3.5 L 143.6600848965928 0 L 136.6600848965928 -3.5 L 136.6600848965928 -0.5 L 110.4237924482964 -0.5 Z"/><text text-anchor="middle" pointer-events="none" font-size="8px" fill="#000000" x="80.8300424482964" y="3" font-family="sans-serif">DESTINATION</text></g><g class="relationship" transform="translate(133.21694169323376 -55.993821644126605) rotate(312.33360507305)"><path class="outline" fill="#A5ABB6" stroke="none" d="M 25 0.5 L 63.082784053251274 0.5 L 63.082784053251274 -0.5 L 25 -0.5 Z M 97.52809655325127 0.5 L 135.61088060650255 0.5 L 135.61088060650255 3.5 L 142.61088060650255 0 L 135.61088060650255 -3.5 L 135.61088060650255 -0.5 L 97.52809655325127 -0.5 Z"/><text text-anchor="middle" pointer-events="none" font-size="8px" fill="#000000" x="80.30544030325127" y="3" font-family="sans-serif">ORIGIN</text></g><g class="relationship" transform="translate(133.21694169323376 -55.993821644126605) rotate(281.0490941309876)"><path class="outline" fill="#A5ABB6" stroke="none" d="M 25 0.5 L 65.15338352047901 0.5 L 65.15338352047901 -0.5 L 25 -0.5 Z M 124.34088352047901 0.5 L 164.49426704095802 0.5 L 164.49426704095802 3.5 L 171.49426704095802 0 L 164.49426704095802 -3.5 L 164.49426704095802 -0.5 L 124.34088352047901 -0.5 Z"/><text text-anchor="middle" pointer-events="none" font-size="8px" fill="#000000" x="94.74713352047901" y="3" font-family="sans-serif">DESTINATION</text></g><g class="relationship" transform="translate(-31.80582301746867 -87.89753739892332) rotate(341.6825712275796)"><path class="outline" fill="#A5ABB6" stroke="none" d="M 25 0.5 L 125.64357020900763 0.5 L 125.64357020900763 -0.5 L 25 -0.5 Z M 160.08888270900763 0.5 L 260.73245291801527 0.5 L 260.73245291801527 3.5 L 267.73245291801527 0 L 260.73245291801527 -3.5 L 260.73245291801527 -0.5 L 160.08888270900763 -0.5 Z"/><text text-anchor="middle" pointer-events="none" font-size="8px" fill="#000000" x="142.86622645900763" y="3" font-family="sans-serif">ORIGIN</text></g><g class="relationship" transform="translate(-31.80582301746867 -87.89753739892332) rotate(340.7309405499989)"><path class="outline" fill="#A5ABB6" stroke="none" d="M 25 0.5 L 64.73380329791395 0.5 L 64.73380329791395 -0.5 L 25 -0.5 Z M 123.92130329791395 0.5 L 163.6551065958279 0.5 L 163.6551065958279 3.5 L 170.6551065958279 0 L 163.6551065958279 -3.5 L 163.6551065958279 -0.5 L 123.92130329791395 -0.5 Z"/><text text-anchor="middle" pointer-events="none" font-size="8px" fill="#000000" x="94.32755329791395" y="3" font-family="sans-serif">DESTINATION</text></g><g class="relationship" transform="translate(40.23001088396437 -23.647602415935626) rotate(322.8015726716223)"><path class="outline" fill="#A5ABB6" stroke="none" d="M 25 0.5 L 108.50008154161563 0.5 L 108.50008154161563 -0.5 L 25 -0.5 Z M 142.94539404161563 0.5 L 226.44547558323126 0.5 L 226.44547558323126 3.5 L 233.44547558323126 0 L 226.44547558323126 -3.5 L 226.44547558323126 -0.5 L 142.94539404161563 -0.5 Z"/><text text-anchor="middle" pointer-events="none" font-size="8px" fill="#000000" x="125.72273779161563" y="3" font-family="sans-serif">ORIGIN</text></g><g class="relationship" transform="translate(40.23001088396437 -23.647602415935626) rotate(341.61259956721176)"><path class="outline" fill="#A5ABB6" stroke="none" d="M 25 0.5 L 63.698975394674505 0.5 L 63.698975394674505 -0.5 L 25 -0.5 Z M 122.8864753946745 0.5 L 161.585450789349 0.5 L 161.585450789349 3.5 L 168.585450789349 0 L 161.585450789349 -3.5 L 161.585450789349 -0.5 L 122.8864753946745 -0.5 Z"/><text text-anchor="middle" pointer-events="none" font-size="8px" fill="#000000" x="93.2927253946745" y="3" font-family="sans-serif">DESTINATION</text></g><g class="relationship" transform="translate(274.7431866324687 83.88327088974084) rotate(263.8013883892559)"><path class="outline" fill="#A5ABB6" stroke="none" d="M 25 0.5 L 111.94353016561337 0.5 L 111.94353016561337 -0.5 L 25 -0.5 Z M 146.38884266561337 0.5 L 233.33237283122673 0.5 L 233.33237283122673 3.5 L 240.33237283122673 0 L 233.33237283122673 -3.5 L 233.33237283122673 -0.5 L 146.38884266561337 -0.5 Z"/><text text-anchor="middle" pointer-events="none" font-size="8px" fill="#000000" x="129.16618641561337" y="3" transform="rotate(180 129.16618641561337 0)" font-family="sans-serif">ORIGIN</text></g><g class="relationship" transform="translate(274.7431866324687 83.88327088974084) rotate(439.4089448780859)"><path class="outline" fill="#A5ABB6" stroke="none" d="M 25 0.5 L 55.18134663843695 0.5 L 55.18134663843695 -0.5 L 25 -0.5 Z M 114.36884663843695 0.5 L 144.5501932768739 0.5 L 144.5501932768739 3.5 L 151.5501932768739 0 L 144.5501932768739 -3.5 L 144.5501932768739 -0.5 L 114.36884663843695 -0.5 Z"/><text text-anchor="middle" pointer-events="none" font-size="8px" fill="#000000" x="84.77509663843695" y="3" font-family="sans-serif">DESTINATION</text></g><g class="relationship" transform="translate(112.90604251539854 42.42668950543035) rotate(300.9245307200148)"><path class="outline" fill="#A5ABB6" stroke="none" d="M 25 0.5 L 108.86051896058646 0.5 L 108.86051896058646 -0.5 L 25 -0.5 Z M 143.30583146058646 0.5 L 227.16635042117292 0.5 L 227.16635042117292 3.5 L 234.16635042117292 0 L 227.16635042117292 -3.5 L 227.16635042117292 -0.5 L 143.30583146058646 -0.5 Z"/><text text-anchor="middle" pointer-events="none" font-size="8px" fill="#000000" x="126.08317521058646" y="3" font-family="sans-serif">ORIGIN</text></g><g class="relationship" transform="translate(112.90604251539854 42.42668950543035) rotate(311.12957212839683)"><path class="outline" fill="#A5ABB6" stroke="none" d="M 25 0.5 L 51.3027626417817 0.5 L 51.3027626417817 -0.5 L 25 -0.5 Z M 110.4902626417817 0.5 L 136.7930252835634 0.5 L 136.7930252835634 3.5 L 143.7930252835634 0 L 136.7930252835634 -3.5 L 136.7930252835634 -0.5 L 110.4902626417817 -0.5 Z"/><text text-anchor="middle" pointer-events="none" font-size="8px" fill="#000000" x="80.8965126417817" y="3" font-family="sans-serif">DESTINATION</text></g><g class="relationship" transform="translate(206.495176921037 13.159181371972464) rotate(281.59138720796636)"><path class="outline" fill="#A5ABB6" stroke="none" d="M 25 0.5 L 77.81550320979525 0.5 L 77.81550320979525 -0.5 L 25 -0.5 Z M 112.26081570979525 0.5 L 165.0763189195905 0.5 L 165.0763189195905 3.5 L 172.0763189195905 0 L 165.0763189195905 -3.5 L 165.0763189195905 -0.5 L 112.26081570979525 -0.5 Z"/><text text-anchor="middle" pointer-events="none" font-size="8px" fill="#000000" x="95.03815945979525" y="3" font-family="sans-serif">ORIGIN</text></g><g class="relationship" transform="translate(206.495176921037 13.159181371972464) rotate(443.3970560651719)"><path class="outline" fill="#A5ABB6" stroke="none" d="M 25 0.5 L 59.78144347951931 0.5 L 59.78144347951931 -0.5 L 25 -0.5 Z M 118.96894347951931 0.5 L 153.75038695903862 0.5 L 153.75038695903862 3.5 L 160.75038695903862 0 L 153.75038695903862 -3.5 L 153.75038695903862 -0.5 L 118.96894347951931 -0.5 Z"/><text text-anchor="middle" pointer-events="none" font-size="8px" fill="#000000" x="89.37519347951931" y="3" font-family="sans-serif">DESTINATION</text></g></g><g class="layer nodes"><g class="node" aria-label="graph-node1312" transform="translate(246.0938532450957,-179.8978576405395)"><circle class="outline" cx="0" cy="0" r="25" fill="#8DCC93" stroke="#5db665" stroke-width="2px"/><text class="caption" text-anchor="middle" pointer-events="none" x="0" y="5" font-size="10px" fill="#2A2C34" font-family="sans-serif"> LAX</text></g><g class="node" aria-label="graph-node1323" transform="translate(79.28526942499806,255.7189997531476)"><circle class="outline" cx="0" cy="0" r="25" fill="#8DCC93" stroke="#5db665" stroke-width="2px"/><text class="caption" text-anchor="middle" pointer-events="none" x="0" y="5" font-size="10px" fill="#2A2C34" font-family="sans-serif"> BOS</text></g><g class="node" aria-label="graph-node1309" transform="translate(524.5074928251512,76.69775553409387)"><circle class="outline" cx="0" cy="0" r="25" fill="#8DCC93" stroke="#5db665" stroke-width="2px"/><text class="caption" text-anchor="middle" pointer-events="none" x="0" y="5" font-size="10px" fill="#2A2C34" font-family="sans-serif"> IAH</text></g><g class="node" aria-label="graph-node1347" transform="translate(152.8885468665391,-152.4646379236805)"><circle class="outline" cx="0" cy="0" r="25" fill="#8DCC93" stroke="#5db665" stroke-width="2px"/><text class="caption" text-anchor="middle" pointer-events="none" x="0" y="5" font-size="10px" fill="#2A2C34" font-family="sans-serif"> ABQ</text></g><g class="node" aria-label="graph-node1349" transform="translate(227.85427792854426,197.67745976081852)"><circle class="outline" cx="0" cy="0" r="25" fill="#8DCC93" stroke="#5db665" stroke-width="2px"/><text class="caption" text-anchor="middle" pointer-events="none" x="0" y="5" font-size="10px" fill="#2A2C34" font-family="sans-serif"> TUS</text></g><g class="node" aria-label="graph-node1308" transform="translate(462.4897079084958,-422.2376040048724)"><circle class="outline" cx="0" cy="0" r="25" fill="#8DCC93" stroke="#5db665" stroke-width="2px"/><text class="caption" text-anchor="middle" pointer-events="none" x="0" y="5" font-size="10px" fill="#2A2C34" font-family="sans-serif"> EWR</text></g><g class="node" aria-label="graph-node1348" transform="translate(223.9320341430864,-84.71226820410199)"><circle class="outline" cx="0" cy="0" r="25" fill="#8DCC93" stroke="#5db665" stroke-width="2px"/><text class="caption" text-anchor="middle" pointer-events="none" x="0" y="5" font-size="10px" fill="#2A2C34" font-family="sans-serif"> FAT</text></g><g class="node" aria-label="graph-node1320" transform="translate(170.87507516947332,-248.84573883202765)"><circle class="outline" cx="0" cy="0" r="25" fill="#8DCC93" stroke="#5db665" stroke-width="2px"/><text class="caption" text-anchor="middle" pointer-events="none" x="0" y="5" font-size="10px" fill="#2A2C34" font-family="sans-serif"> SMF</text></g><g class="node" aria-label="graph-node1332" transform="translate(307.19274049913633,257.42576482121507)"><circle class="outline" cx="0" cy="0" r="25" fill="#8DCC93" stroke="#5db665" stroke-width="2px"/><text class="caption" text-anchor="middle" pointer-events="none" x="0" y="5" font-size="10px" fill="#2A2C34" font-family="sans-serif"> LAS</text></g><g class="node" aria-label="graph-node1954" transform="translate(181.1146770748199,109.81746651111838)"><circle class="outline" cx="0" cy="0" r="25" fill="#ECB5C9" stroke="#da7298" stroke-width="2px"/><text class="caption" text-anchor="middle" pointer-events="none" x="0" y="5" font-size="10px" fill="#2A2C34" font-family="sans-serif"> 11/29/20…</text></g><g class="node" aria-label="graph-node1410" transform="translate(420.5191587813874,-45.433102528310954)"><circle class="outline" cx="0" cy="0" r="25" fill="#ECB5C9" stroke="#da7298" stroke-width="2px"/><text class="caption" text-anchor="middle" pointer-events="none" x="0" y="5" font-size="10px" fill="#2A2C34" font-family="sans-serif"> 11/30/20…</text></g><g class="node" aria-label="graph-node2238" transform="translate(318.7440208220322,-61.87387295004752)"><circle class="outline" cx="0" cy="0" r="25" fill="#ECB5C9" stroke="#da7298" stroke-width="2px"/><text class="caption" text-anchor="middle" pointer-events="none" x="0" y="0" font-size="10px" fill="#2A2C34" font-family="sans-serif"> 11/3/2015</text><text class="caption" text-anchor="middle" pointer-events="none" x="0" y="10" font-size="10px" fill="#2A2C34" font-family="sans-serif"> 21:46:…</text></g><g class="node" aria-label="graph-node2290" transform="translate(356.34438696434137,29.27588422822977)"><circle class="outline" cx="0" cy="0" r="25" fill="#ECB5C9" stroke="#da7298" stroke-width="2px"/><text class="caption" text-anchor="middle" pointer-events="none" x="0" y="0" font-size="10px" fill="#2A2C34" font-family="sans-serif"> 11/2/2015</text><text class="caption" text-anchor="middle" pointer-events="none" x="0" y="10" font-size="10px" fill="#2A2C34" font-family="sans-serif"> 09:52:…</text></g><g class="node" aria-label="graph-node1850" transform="translate(432.39547205310396,-263.1472378397849)"><circle class="outline" cx="0" cy="0" r="25" fill="#ECB5C9" stroke="#da7298" stroke-width="2px"/><text class="caption" text-anchor="middle" pointer-events="none" x="0" y="5" font-size="10px" fill="#2A2C34" font-family="sans-serif"> 11/29/20…</text></g><g class="node" aria-label="graph-node2270" transform="translate(383.9993784821888,-136.74251122492691)"><circle class="outline" cx="0" cy="0" r="25" fill="#ECB5C9" stroke="#da7298" stroke-width="2px"/><text class="caption" text-anchor="middle" pointer-events="none" x="0" y="0" font-size="10px" fill="#2A2C34" font-family="sans-serif"> 11/4/2015</text><text class="caption" text-anchor="middle" pointer-events="none" x="0" y="10" font-size="10px" fill="#2A2C34" font-family="sans-serif"> 15:13:…</text></g><g class="node" aria-label="graph-node1442" transform="translate(354.3966898484012,-324.76584386278535)"><circle class="outline" cx="0" cy="0" r="25" fill="#ECB5C9" stroke="#da7298" stroke-width="2px"/><text class="caption" text-anchor="middle" pointer-events="none" x="0" y="5" font-size="10px" fill="#2A2C34" font-family="sans-serif"> 11/30/20…</text></g><g class="node" aria-label="graph-node2282" transform="translate(262.08782589011884,-286.7162235041381)"><circle class="outline" cx="0" cy="0" r="25" fill="#ECB5C9" stroke="#da7298" stroke-width="2px"/><text class="caption" text-anchor="middle" pointer-events="none" x="0" y="0" font-size="10px" fill="#2A2C34" font-family="sans-serif"> 11/2/2015</text><text class="caption" text-anchor="middle" pointer-events="none" x="0" y="10" font-size="10px" fill="#2A2C34" font-family="sans-serif"> 15:15:…</text></g><g class="node" aria-label="graph-node2234" transform="translate(185.40206758860433,-347.0243509146293)"><circle class="outline" cx="0" cy="0" r="25" fill="#ECB5C9" stroke="#da7298" stroke-width="2px"/><text class="caption" text-anchor="middle" pointer-events="none" x="0" y="0" font-size="10px" fill="#2A2C34" font-family="sans-serif"> 11/1/2015</text><text class="caption" text-anchor="middle" pointer-events="none" x="0" y="10" font-size="10px" fill="#2A2C34" font-family="sans-serif"> 05:43:…</text></g><g class="node" aria-label="graph-node2306" transform="translate(341.139117302753,-226.63658637409915)"><circle class="outline" cx="0" cy="0" r="25" fill="#ECB5C9" stroke="#da7298" stroke-width="2px"/><text class="caption" text-anchor="middle" pointer-events="none" x="0" y="0" font-size="10px" fill="#2A2C34" font-family="sans-serif"> 11/1/2015</text><text class="caption" text-anchor="middle" pointer-events="none" x="0" y="10" font-size="10px" fill="#2A2C34" font-family="sans-serif"> 12:26:…</text></g><g class="node" aria-label="graph-node2302" transform="translate(275.27651382274644,-384.3161106957574)"><circle class="outline" cx="0" cy="0" r="25" fill="#ECB5C9" stroke="#da7298" stroke-width="2px"/><text class="caption" text-anchor="middle" pointer-events="none" x="0" y="0" font-size="10px" fill="#2A2C34" font-family="sans-serif"> 11/2/2015</text><text class="caption" text-anchor="middle" pointer-events="none" x="0" y="10" font-size="10px" fill="#2A2C34" font-family="sans-serif"> 11:49:…</text></g><g class="node" aria-label="graph-node2226" transform="translate(95.6589634827743,-314.1866376285482)"><circle class="outline" cx="0" cy="0" r="25" fill="#ECB5C9" stroke="#da7298" stroke-width="2px"/><text class="caption" text-anchor="middle" pointer-events="none" x="0" y="0" font-size="10px" fill="#2A2C34" font-family="sans-serif"> 11/2/2015</text><text class="caption" text-anchor="middle" pointer-events="none" x="0" y="10" font-size="10px" fill="#2A2C34" font-family="sans-serif"> 04:43:…</text></g><g class="node" aria-label="graph-node2262" transform="translate(79.60108244511379,-216.7893376675114)"><circle class="outline" cx="0" cy="0" r="25" fill="#ECB5C9" stroke="#da7298" stroke-width="2px"/><text class="caption" text-anchor="middle" pointer-events="none" x="0" y="0" font-size="10px" fill="#2A2C34" font-family="sans-serif"> 11/2/2015</text><text class="caption" text-anchor="middle" pointer-events="none" x="0" y="10" font-size="10px" fill="#2A2C34" font-family="sans-serif"> 09:18:…</text></g><g class="node" aria-label="graph-node2274" transform="translate(3.835894515217569,-279.55394590905956)"><circle class="outline" cx="0" cy="0" r="25" fill="#ECB5C9" stroke="#da7298" stroke-width="2px"/><text class="caption" text-anchor="middle" pointer-events="none" x="0" y="0" font-size="10px" fill="#2A2C34" font-family="sans-serif"> 11/3/2015</text><text class="caption" text-anchor="middle" pointer-events="none" x="0" y="10" font-size="10px" fill="#2A2C34" font-family="sans-serif"> 23:26:…</text></g><g class="node" aria-label="graph-node2278" transform="translate(-14.810026667975757,-184.93241985680322)"><circle class="outline" cx="0" cy="0" r="25" fill="#ECB5C9" stroke="#da7298" stroke-width="2px"/><text class="caption" text-anchor="middle" pointer-events="none" x="0" y="0" font-size="10px" fill="#2A2C34" font-family="sans-serif"> 11/1/2015</text><text class="caption" text-anchor="middle" pointer-events="none" x="0" y="10" font-size="10px" fill="#2A2C34" font-family="sans-serif"> 17:17:…</text></g><g class="node" aria-label="graph-node2310" transform="translate(59.805573670251725,-121.9213909942692)"><circle class="outline" cx="0" cy="0" r="25" fill="#ECB5C9" stroke="#da7298" stroke-width="2px"/><text class="caption" text-anchor="middle" pointer-events="none" x="0" y="0" font-size="10px" fill="#2A2C34" font-family="sans-serif"> 11/4/2015</text><text class="caption" text-anchor="middle" pointer-events="none" x="0" y="10" font-size="10px" fill="#2A2C34" font-family="sans-serif"> 05:06:…</text></g><g class="node" aria-label="graph-node2314" transform="translate(133.21694169323376,-55.993821644126605)"><circle class="outline" cx="0" cy="0" r="25" fill="#ECB5C9" stroke="#da7298" stroke-width="2px"/><text class="caption" text-anchor="middle" pointer-events="none" x="0" y="0" font-size="10px" fill="#2A2C34" font-family="sans-serif"> 11/3/2015</text><text class="caption" text-anchor="middle" pointer-events="none" x="0" y="10" font-size="10px" fill="#2A2C34" font-family="sans-serif"> 13:44:…</text></g><g class="node" aria-label="graph-node2230" transform="translate(-31.80582301746867,-87.89753739892332)"><circle class="outline" cx="0" cy="0" r="25" fill="#ECB5C9" stroke="#da7298" stroke-width="2px"/><text class="caption" text-anchor="middle" pointer-events="none" x="0" y="0" font-size="10px" fill="#2A2C34" font-family="sans-serif"> 11/4/2015</text><text class="caption" text-anchor="middle" pointer-events="none" x="0" y="10" font-size="10px" fill="#2A2C34" font-family="sans-serif"> 15:09:…</text></g><g class="node" aria-label="graph-node2266" transform="translate(40.23001088396437,-23.647602415935626)"><circle class="outline" cx="0" cy="0" r="25" fill="#ECB5C9" stroke="#da7298" stroke-width="2px"/><text class="caption" text-anchor="middle" pointer-events="none" x="0" y="0" font-size="10px" fill="#2A2C34" font-family="sans-serif"> 11/1/2015</text><text class="caption" text-anchor="middle" pointer-events="none" x="0" y="10" font-size="10px" fill="#2A2C34" font-family="sans-serif"> 02:27:…</text></g><g class="node" aria-label="graph-node1966" transform="translate(274.7431866324687,83.88327088974084)"><circle class="outline" cx="0" cy="0" r="25" fill="#ECB5C9" stroke="#da7298" stroke-width="2px"/><text class="caption" text-anchor="middle" pointer-events="none" x="0" y="5" font-size="10px" fill="#2A2C34" font-family="sans-serif"> 11/29/20…</text></g><g class="node" aria-label="graph-node2258" transform="translate(112.90604251539854,42.42668950543035)"><circle class="outline" cx="0" cy="0" r="25" fill="#ECB5C9" stroke="#da7298" stroke-width="2px"/><text class="caption" text-anchor="middle" pointer-events="none" x="0" y="0" font-size="10px" fill="#2A2C34" font-family="sans-serif"> 11/3/2015</text><text class="caption" text-anchor="middle" pointer-events="none" x="0" y="10" font-size="10px" fill="#2A2C34" font-family="sans-serif"> 11:45:…</text></g><g class="node" aria-label="graph-node2286" transform="translate(206.495176921037,13.159181371972464)"><circle class="outline" cx="0" cy="0" r="25" fill="#ECB5C9" stroke="#da7298" stroke-width="2px"/><text class="caption" text-anchor="middle" pointer-events="none" x="0" y="0" font-size="10px" fill="#2A2C34" font-family="sans-serif"> 11/1/2015</text><text class="caption" text-anchor="middle" pointer-events="none" x="0" y="10" font-size="10px" fill="#2A2C34" font-family="sans-serif"> 05:51:…</text></g></g></svg>