<svg xmlns="http://www.w3.org/2000/svg" width="333.17449951171875" height="198.50497436523438" viewBox="-205.48684692382812 -94.9967269897461 333.17449951171875 198.50497436523438"><title>Neo4j Graph Visualization</title><desc>Created using Neo4j (http://www.neo4j.com/)</desc><g class="layer relationships"><g class="relationship" transform="translate(-176.48684219199615 -53.150411054227064) rotate(404.4697932162296)"><path class="outline" fill="#A5ABB6" stroke="none" d="M 21.40063509461097,12.933012701892217 L 21.90063509461097,12.06698729810778 A 98.77371968707531 98.77371968707531 0 0 0 59.413744201797414,24.58387786770666 L 59.29353256277067,25.57662615495903 A 99.77371968707531 99.77371968707531 0 0 1 21.40063509461097,12.933012701892217 Z M 78.69096958429078,26.02509863974342 L 78.61676693183519,25.027855456578678 A 98.77371968707531 98.77371968707531 0 0 0 116.66826932866829,14.258033277787234 L 115.28994396436217,11.593409628918527 L 123.11544540341296,11.48604470255106 L 118.50603648107646,17.810864809612177 L 117.12771111677034,15.146241160743472 A 99.77371968707531 99.77371968707531 0 0 1 78.69096958429078,26.02509863974342"/><text text-anchor="middle" pointer-events="none" font-size="8px" fill="#000000" x="68.99288059723104" y="28.773634090722467" font-family="sans-serif">trek</text></g><g class="relationship" transform="translate(-72.78314349155292 48.65151430020046) rotate(370.2502321267557)"><path class="outline" fill="#A5ABB6" stroke="none" d="M 25 0.5 L 59.48474363765422 0.5 L 59.48474363765422 -0.5 L 25 -0.5 Z M 78.82068113765422 0.5 L 113.30542477530844 0.5 L 113.30542477530844 3.5 L 120.30542477530844 0 L 113.30542477530844 -3.5 L 113.30542477530844 -0.5 L 78.82068113765422 -0.5 Z"/><text text-anchor="middle" pointer-events="none" font-size="8px" fill="#000000" x="69.15271238765422" y="3" font-family="sans-serif">trek</text></g><g class="relationship" transform="translate(70.2032033219184 74.50825605299153) rotate(281.46019865057286)"><path class="outline" fill="#A5ABB6" stroke="none" d="M 25 0.5 L 58.51364251899243 0.5 L 58.51364251899243 -0.5 L 25 -0.5 Z M 77.84958001899243 0.5 L 111.36322253798485 0.5 L 111.36322253798485 3.5 L 118.36322253798485 0 L 111.36322253798485 -3.5 L 111.36322253798485 -0.5 L 77.84958001899243 -0.5 Z"/><text text-anchor="middle" pointer-events="none" font-size="8px" fill="#000000" x="68.18161126899243" y="3" font-family="sans-serif">trek</text></g><g class="relationship" transform="translate(-176.48684219199615 -53.150411054227064) rotate(404.4697932162296)"><path class="outline" fill="#A5ABB6" stroke="none" d="M 25 0.5 L 58.15446186365945 0.5 L 58.15446186365945 -0.5 L 25 -0.5 Z M 80.16618061365945 0.5 L 113.3206424773189 0.5 L 113.3206424773189 3.5 L 120.3206424773189 0 L 113.3206424773189 -3.5 L 113.3206424773189 -0.5 L 80.16618061365945 -0.5 Z"/><text text-anchor="middle" pointer-events="none" font-size="8px" fill="#000000" x="69.16032123865945" y="3" font-family="sans-serif">road</text></g><g class="relationship" transform="translate(-176.48684219199615 -53.150411054227064) rotate(404.4697932162296)"><path class="outline" fill="#A5ABB6" stroke="none" d="M 21.40063509461097,-12.933012701892217 L 21.90063509461097,-12.06698729810778 A 98.77371968707531 98.77371968707531 0 0 1 38.9064033370724,-19.841562110970145 L 38.57857229351483,-20.786298479953558 A 99.77371968707531 99.77371968707531 0 0 0 21.40063509461097,-12.933012701892217 Z M 99.60518385582785,-22.197245508417154 L 99.32136473986732,-21.23836766978735 A 98.77371968707531 98.77371968707531 0 0 1 116.66826932866829,-14.258033277787234 L 115.28994396436217,-11.593409628918527 L 123.11544540341296,-11.48604470255106 L 118.50603648107646,-17.810864809612177 L 117.12771111677034,-15.146241160743472 A 99.77371968707531 99.77371968707531 0 0 0 99.60518385582785,-22.197245508417154"/><text text-anchor="middle" pointer-events="none" font-size="8px" fill="#000000" x="68.99288059723101" y="-22.773634090722467" font-family="sans-serif">PublicTransport</text></g></g><g class="layer nodes"><g class="node" aria-label="graph-node1298" transform="translate(-176.48684219199615,-53.150411054227064)"><circle class="outline" cx="0" cy="0" r="25" fill="#57C7E3" stroke="#23b3d7" stroke-width="2px"/><text class="caption" text-anchor="middle" pointer-events="none" x="0" y="5" font-size="10px" fill="#2A2C34" font-family="sans-serif"> Darjeeling</text></g><g class="node" aria-label="graph-node1300" transform="translate(98.68763591320327,-65.99672847221426)"><circle class="outline" cx="0" cy="0" r="25" fill="#D9C8AE" stroke="#c0a378" stroke-width="2px"/><text class="caption" text-anchor="middle" pointer-events="none" x="0" y="5" font-size="10px" fill="#2A2C34" font-family="sans-serif"> Sandakp…</text></g><g class="node" aria-label="graph-node1297" transform="translate(-72.78314349155292,48.65151430020046)"><circle class="outline" cx="0" cy="0" r="25" fill="#57C7E3" stroke="#23b3d7" stroke-width="2px"/><text class="caption" text-anchor="middle" pointer-events="none" x="0" y="5" font-size="10px" fill="#2A2C34" font-family="sans-serif"> Rimbik</text></g><g class="node" aria-label="graph-node1299" transform="translate(70.2032033219184,74.50825605299153)"><circle class="outline" cx="0" cy="0" r="25" fill="#F16667" stroke="#eb2728" stroke-width="2px"/><text class="caption" text-anchor="middle" pointer-events="none" x="0" y="5" font-size="10px" fill="#FFFFFF" font-family="sans-serif"> BhikeBh…</text></g></g></svg>