<svg xmlns="http://www.w3.org/2000/svg" width="504.2159118652344" height="149.91258239746094" viewBox="-368.4868469238281 -51.068389892578125 504.2159118652344 149.91258239746094"><title>Neo4j Graph Visualization</title><desc>Created using Neo4j (http://www.neo4j.com/)</desc><g class="layer relationships"><g class="relationship" transform="translate(-339.4868421919962 66.84958894577294) rotate(349.0725368556282)"><path class="outline" fill="#A5ABB6" stroke="none" d="M 21.40063509461097,12.933012701892217 L 21.90063509461097,12.06698729810778 A 115.14276234411265 115.14276234411265 0 0 0 67.4618015671973,26.86510361733498 L 67.35749440576602,27.859648747569977 A 116.14276234411265 116.14276234411265 0 0 1 21.40063509461097,12.933012701892217 Z M 86.75018604815375,28.26492219257065 L 86.68752032852912,27.266887620231643 A 115.14276234411265 115.14276234411265 0 0 0 132.8271473224588,14.38515800805855 L 131.43700008342518,11.726682758257049 L 139.26194744516792,11.58456032528031 L 134.68067697450368,17.929791674460553 L 133.29052973547005,15.271316424659052 A 116.14276234411265 116.14276234411265 0 0 1 86.75018604815375,28.26492219257065"/><text text-anchor="middle" pointer-events="none" font-size="8px" fill="#000000" x="77.05581171738659" y="30.967947915038096" font-family="sans-serif">trek</text></g><g class="relationship" transform="translate(-180.9977336687997 36.25060546839726) rotate(352.44361142738603)"><path class="outline" fill="#A5ABB6" stroke="none" d="M 25 0.5 L 62.75628286939691 0.5 L 62.75628286939691 -0.5 L 25 -0.5 Z M 82.09222036939691 0.5 L 119.84850323879382 0.5 L 119.84850323879382 3.5 L 126.84850323879382 0 L 119.84850323879382 -3.5 L 119.84850323879382 -0.5 L 82.09222036939691 -0.5 Z"/><text text-anchor="middle" pointer-events="none" font-size="8px" fill="#000000" x="72.42425161939691" y="3" font-family="sans-serif">trek</text></g><g class="relationship" transform="translate(-30.467894710830492 16.28224251221501) rotate(344.38273991094616)"><path class="outline" fill="#A5ABB6" stroke="none" d="M 25 0.5 L 58.06014180108372 0.5 L 58.06014180108372 -0.5 L 25 -0.5 Z M 77.39607930108372 0.5 L 110.45622110216743 0.5 L 110.45622110216743 3.5 L 117.45622110216743 0 L 110.45622110216743 -3.5 L 110.45622110216743 -0.5 L 77.39607930108372 -0.5 Z"/><text text-anchor="middle" pointer-events="none" font-size="8px" fill="#000000" x="67.72811055108372" y="3" font-family="sans-serif">trek</text></g><g class="relationship" transform="translate(-339.4868421919962 66.84958894577294) rotate(349.0725368556282)"><path class="outline" fill="#A5ABB6" stroke="none" d="M 25 0.5 L 66.20209455509021 0.5 L 66.20209455509021 -0.5 L 25 -0.5 Z M 88.21381330509021 0.5 L 129.41590786018043 0.5 L 129.41590786018043 3.5 L 136.41590786018043 0 L 129.41590786018043 -3.5 L 129.41590786018043 -0.5 L 88.21381330509021 -0.5 Z"/><text text-anchor="middle" pointer-events="none" font-size="8px" fill="#000000" x="77.20795393009021" y="3" font-family="sans-serif">road</text></g><g class="relationship" transform="translate(-339.4868421919962 66.84958894577294) rotate(349.0725368556282)"><path class="outline" fill="#A5ABB6" stroke="none" d="M 21.40063509461097,-12.933012701892217 L 21.90063509461097,-12.06698729810778 A 115.14276234411265 115.14276234411265 0 0 1 46.79172341234847,-22.758102692565444 L 46.50789929532189,-23.71697905091102 A 116.14276234411265 116.14276234411265 0 0 0 21.40063509461097,-12.933012701892217 Z M 107.7546510848223,-24.996929382229553 L 107.51113496511473,-24.02703253233129 A 115.14276234411265 115.14276234411265 0 0 1 132.8271473224588,-14.38515800805855 L 131.43700008342518,-11.726682758257049 L 139.26194744516792,-11.58456032528031 L 134.68067697450368,-17.929791674460553 L 133.29052973547005,-15.271316424659052 A 116.14276234411265 116.14276234411265 0 0 0 107.7546510848223,-24.996929382229553"/><text text-anchor="middle" pointer-events="none" font-size="8px" fill="#000000" x="77.05581171738659" y="-24.967947915038096" font-family="sans-serif">PublicTransport</text></g></g><g class="layer nodes"><g class="node" aria-label="graph-node1" transform="translate(-339.4868421919962,66.84958894577294)"><circle class="outline" cx="0" cy="0" r="25" fill="#57C7E3" stroke="#23b3d7" stroke-width="2px"/><text class="caption" text-anchor="middle" pointer-events="none" x="0" y="5" font-size="10px" fill="#2A2C34" font-family="sans-serif"> Darjeeling</text></g><g class="node" aria-label="graph-node3" transform="translate(106.72905813646354,-22.068390600251213)"><circle class="outline" cx="0" cy="0" r="25" fill="#D9C8AE" stroke="#c0a378" stroke-width="2px"/><text class="caption" text-anchor="middle" pointer-events="none" x="0" y="5" font-size="10px" fill="#2A2C34" font-family="sans-serif"> Sandakp…</text></g><g class="node" aria-label="graph-node0" transform="translate(-180.9977336687997,36.25060546839726)"><circle class="outline" cx="0" cy="0" r="25" fill="#57C7E3" stroke="#23b3d7" stroke-width="2px"/><text class="caption" text-anchor="middle" pointer-events="none" x="0" y="5" font-size="10px" fill="#2A2C34" font-family="sans-serif"> Rimbik</text></g><g class="node" aria-label="graph-node2" transform="translate(-30.467894710830492,16.28224251221501)"><circle class="outline" cx="0" cy="0" r="25" fill="#F16667" stroke="#eb2728" stroke-width="2px"/><text class="caption" text-anchor="middle" pointer-events="none" x="0" y="5" font-size="10px" fill="#FFFFFF" font-family="sans-serif"> BhikeBh…</text></g></g></svg>