<svg xmlns="http://www.w3.org/2000/svg" width="398.36944580078125" height="204.5860595703125" viewBox="-246.1672821044922 -152.06300354003906 398.36944580078125 204.5860595703125"><title>Neo4j Graph Visualization</title><desc>Created using Neo4j (http://www.neo4j.com/)</desc><g class="layer relationships"><g class="relationship" transform="translate(55.4439726680084 -104.70503827752346) rotate(422.1471739708088)"><path class="outline" fill="#A5ABB6" stroke="none" d="M 25 0.5 L 51.79218773300599 0.5 L 51.79218773300599 -0.5 L 25 -0.5 Z M 86.23750023300599 0.5 L 113.02968796601198 0.5 L 113.02968796601198 3.5 L 120.02968796601198 0 L 113.02968796601198 -3.5 L 113.02968796601198 -0.5 L 86.23750023300599 -0.5 Z"/><text text-anchor="middle" pointer-events="none" font-size="8px" fill="#000000" x="69.01484398300599" y="3" font-family="sans-serif">ORIGIN</text></g><g class="relationship" transform="translate(55.4439726680084 -104.70503827752346) rotate(186.86356396790677)"><path class="outline" fill="#A5ABB6" stroke="none" d="M 25 0.5 L 43.714279600270814 0.5 L 43.714279600270814 -0.5 L 25 -0.5 Z M 102.90177960027081 0.5 L 121.61605920054163 0.5 L 121.61605920054163 3.5 L 128.61605920054163 0 L 121.61605920054163 -3.5 L 121.61605920054163 -0.5 L 102.90177960027081 -0.5 Z"/><text text-anchor="middle" pointer-events="none" font-size="8px" fill="#000000" x="73.30802960027081" y="3" transform="rotate(180 73.30802960027081 0)" font-family="sans-serif">DESTINATION</text></g><g class="relationship" transform="translate(-217.16727925598022 -19.663423510857594) rotate(319.27241047921575)"><path class="outline" fill="#A5ABB6" stroke="none" d="M 25 0.5 L 58.515182117179194 0.5 L 58.515182117179194 -0.5 L 25 -0.5 Z M 92.9604946171792 0.5 L 126.47567673435839 0.5 L 126.47567673435839 3.5 L 133.4756767343584 0 L 126.47567673435839 -3.5 L 126.47567673435839 -0.5 L 92.9604946171792 -0.5 Z"/><text text-anchor="middle" pointer-events="none" font-size="8px" fill="#000000" x="75.7378383671792" y="3" font-family="sans-serif">ORIGIN</text></g><g class="relationship" transform="translate(-217.16727925598022 -19.663423510857594) rotate(358.02717888941027)"><path class="outline" fill="#A5ABB6" stroke="none" d="M 25 0.5 L 33.06367163854402 0.5 L 33.06367163854402 -0.5 L 25 -0.5 Z M 92.25117163854402 0.5 L 100.31484327708804 0.5 L 100.31484327708804 3.5 L 107.31484327708804 0 L 100.31484327708804 -3.5 L 100.31484327708804 -0.5 L 92.25117163854402 -0.5 Z"/><text text-anchor="middle" pointer-events="none" font-size="8px" fill="#000000" x="62.65742163854402" y="3" font-family="sans-serif">DESTINATION</text></g></g><g class="layer nodes"><g class="node" aria-label="graph-node1328" transform="translate(123.2021351442903,23.523046826156452)"><circle class="outline" cx="0" cy="0" r="25" fill="#8DCC93" stroke="#5db665" stroke-width="2px"/><text class="caption" text-anchor="middle" pointer-events="none" x="0" y="5" font-size="10px" fill="#2A2C34" font-family="sans-serif"> MSN</text></g><g class="node" aria-label="graph-node1375" transform="translate(-84.93086301659001,-24.218417649504204)"><circle class="outline" cx="0" cy="0" r="25" fill="#8DCC93" stroke="#5db665" stroke-width="2px"/><text class="caption" text-anchor="middle" pointer-events="none" x="0" y="5" font-size="10px" fill="#2A2C34" font-family="sans-serif"> GRR</text></g><g class="node" aria-label="graph-node1578" transform="translate(55.4439726680084,-104.70503827752346)"><circle class="outline" cx="0" cy="0" r="25" fill="#ECB5C9" stroke="#da7298" stroke-width="2px"/><text class="caption" text-anchor="middle" pointer-events="none" x="0" y="5" font-size="10px" fill="#2A2C34" font-family="sans-serif"> 11/30/20…</text></g><g class="node" aria-label="graph-node1314" transform="translate(-97.07120313561443,-123.06300096117491)"><circle class="outline" cx="0" cy="0" r="25" fill="#8DCC93" stroke="#5db665" stroke-width="2px"/><text class="caption" text-anchor="middle" pointer-events="none" x="0" y="5" font-size="10px" fill="#2A2C34" font-family="sans-serif"> ORD</text></g><g class="node" aria-label="graph-node2158" transform="translate(-217.16727925598022,-19.663423510857594)"><circle class="outline" cx="0" cy="0" r="25" fill="#ECB5C9" stroke="#da7298" stroke-width="2px"/><text class="caption" text-anchor="middle" pointer-events="none" x="0" y="5" font-size="10px" fill="#2A2C34" font-family="sans-serif"> 11/17/20…</text></g></g></svg>